%TF.GenerationSoftware,KiCad,Pcbnew,10.0.4*%
%TF.CreationDate,2026-07-22T04:32:01+01:00*%
%TF.ProjectId,countdown,636f756e-7464-46f7-976e-2e6b69636164,rev?*%
%TF.SameCoordinates,Original*%
%TF.FileFunction,Legend,Top*%
%TF.FilePolarity,Positive*%
%FSLAX46Y46*%
G04 Gerber Fmt 4.6, Leading zero omitted, Abs format (unit mm)*
G04 Created by KiCad (PCBNEW 10.0.4) date 2026-07-22 04:32:01*
%MOMM*%
%LPD*%
G01*
G04 APERTURE LIST*
G04 Aperture macros list*
%AMRoundRect*
0 Rectangle with rounded corners*
0 $1 Rounding radius*
0 $2 $3 $4 $5 $6 $7 $8 $9 X,Y pos of 4 corners*
0 Add a 4 corners polygon primitive as box body*
4,1,4,$2,$3,$4,$5,$6,$7,$8,$9,$2,$3,0*
0 Add four circle primitives for the rounded corners*
1,1,$1+$1,$2,$3*
1,1,$1+$1,$4,$5*
1,1,$1+$1,$6,$7*
1,1,$1+$1,$8,$9*
0 Add four rect primitives between the rounded corners*
20,1,$1+$1,$2,$3,$4,$5,0*
20,1,$1+$1,$4,$5,$6,$7,0*
20,1,$1+$1,$6,$7,$8,$9,0*
20,1,$1+$1,$8,$9,$2,$3,0*%
G04 Aperture macros list end*
%ADD10C,0.150000*%
%ADD11C,0.280000*%
%ADD12C,0.120000*%
%ADD13C,0.300000*%
%ADD14RoundRect,0.200000X-0.200000X-0.275000X0.200000X-0.275000X0.200000X0.275000X-0.200000X0.275000X0*%
%ADD15C,6.600000*%
%ADD16RoundRect,0.225000X0.225000X-0.375000X0.225000X0.375000X-0.225000X0.375000X-0.225000X-0.375000X0*%
%ADD17RoundRect,0.500000X-0.500000X-0.500000X0.500000X-0.500000X0.500000X0.500000X-0.500000X0.500000X0*%
%ADD18RoundRect,0.500000X-0.500000X-0.600000X0.500000X-0.600000X0.500000X0.600000X-0.500000X0.600000X0*%
%ADD19C,0.990600*%
G04 APERTURE END LIST*
D10*
X14707142Y18805729D02*
X14749999Y18848586D01*
X14749999Y18848586D02*
X14835714Y18891443D01*
X14835714Y18891443D02*
X15049999Y18891443D01*
X15049999Y18891443D02*
X15135714Y18848586D01*
X15135714Y18848586D02*
X15178571Y18805729D01*
X15178571Y18805729D02*
X15221428Y18720015D01*
X15221428Y18720015D02*
X15221428Y18634300D01*
X15221428Y18634300D02*
X15178571Y18505729D01*
X15178571Y18505729D02*
X14664285Y17991443D01*
X14664285Y17991443D02*
X15221428Y17991443D01*
X15778571Y18891443D02*
X15864285Y18891443D01*
X15864285Y18891443D02*
X15949999Y18848586D01*
X15949999Y18848586D02*
X15992857Y18805729D01*
X15992857Y18805729D02*
X16035714Y18720015D01*
X16035714Y18720015D02*
X16078571Y18548586D01*
X16078571Y18548586D02*
X16078571Y18334300D01*
X16078571Y18334300D02*
X16035714Y18162872D01*
X16035714Y18162872D02*
X15992857Y18077158D01*
X15992857Y18077158D02*
X15949999Y18034300D01*
X15949999Y18034300D02*
X15864285Y17991443D01*
X15864285Y17991443D02*
X15778571Y17991443D01*
X15778571Y17991443D02*
X15692857Y18034300D01*
X15692857Y18034300D02*
X15649999Y18077158D01*
X15649999Y18077158D02*
X15607142Y18162872D01*
X15607142Y18162872D02*
X15564285Y18334300D01*
X15564285Y18334300D02*
X15564285Y18548586D01*
X15564285Y18548586D02*
X15607142Y18720015D01*
X15607142Y18720015D02*
X15649999Y18805729D01*
X15649999Y18805729D02*
X15692857Y18848586D01*
X15692857Y18848586D02*
X15778571Y18891443D01*
X16421428Y18805729D02*
X16464285Y18848586D01*
X16464285Y18848586D02*
X16550000Y18891443D01*
X16550000Y18891443D02*
X16764285Y18891443D01*
X16764285Y18891443D02*
X16850000Y18848586D01*
X16850000Y18848586D02*
X16892857Y18805729D01*
X16892857Y18805729D02*
X16935714Y18720015D01*
X16935714Y18720015D02*
X16935714Y18634300D01*
X16935714Y18634300D02*
X16892857Y18505729D01*
X16892857Y18505729D02*
X16378571Y17991443D01*
X16378571Y17991443D02*
X16935714Y17991443D01*
X17707143Y18891443D02*
X17535714Y18891443D01*
X17535714Y18891443D02*
X17450000Y18848586D01*
X17450000Y18848586D02*
X17407143Y18805729D01*
X17407143Y18805729D02*
X17321428Y18677158D01*
X17321428Y18677158D02*
X17278571Y18505729D01*
X17278571Y18505729D02*
X17278571Y18162872D01*
X17278571Y18162872D02*
X17321428Y18077158D01*
X17321428Y18077158D02*
X17364285Y18034300D01*
X17364285Y18034300D02*
X17450000Y17991443D01*
X17450000Y17991443D02*
X17621428Y17991443D01*
X17621428Y17991443D02*
X17707143Y18034300D01*
X17707143Y18034300D02*
X17750000Y18077158D01*
X17750000Y18077158D02*
X17792857Y18162872D01*
X17792857Y18162872D02*
X17792857Y18377158D01*
X17792857Y18377158D02*
X17750000Y18462872D01*
X17750000Y18462872D02*
X17707143Y18505729D01*
X17707143Y18505729D02*
X17621428Y18548586D01*
X17621428Y18548586D02*
X17450000Y18548586D01*
X17450000Y18548586D02*
X17364285Y18505729D01*
X17364285Y18505729D02*
X17321428Y18462872D01*
X17321428Y18462872D02*
X17278571Y18377158D01*
X18178571Y18334300D02*
X18864286Y18334300D01*
X19764286Y17991443D02*
X19250000Y17991443D01*
X19507143Y17991443D02*
X19507143Y18891443D01*
X19507143Y18891443D02*
X19421429Y18762872D01*
X19421429Y18762872D02*
X19335714Y18677158D01*
X19335714Y18677158D02*
X19250000Y18634300D01*
X20321429Y18891443D02*
X20407143Y18891443D01*
X20407143Y18891443D02*
X20492857Y18848586D01*
X20492857Y18848586D02*
X20535715Y18805729D01*
X20535715Y18805729D02*
X20578572Y18720015D01*
X20578572Y18720015D02*
X20621429Y18548586D01*
X20621429Y18548586D02*
X20621429Y18334300D01*
X20621429Y18334300D02*
X20578572Y18162872D01*
X20578572Y18162872D02*
X20535715Y18077158D01*
X20535715Y18077158D02*
X20492857Y18034300D01*
X20492857Y18034300D02*
X20407143Y17991443D01*
X20407143Y17991443D02*
X20321429Y17991443D01*
X20321429Y17991443D02*
X20235715Y18034300D01*
X20235715Y18034300D02*
X20192857Y18077158D01*
X20192857Y18077158D02*
X20150000Y18162872D01*
X20150000Y18162872D02*
X20107143Y18334300D01*
X20107143Y18334300D02*
X20107143Y18548586D01*
X20107143Y18548586D02*
X20150000Y18720015D01*
X20150000Y18720015D02*
X20192857Y18805729D01*
X20192857Y18805729D02*
X20235715Y18848586D01*
X20235715Y18848586D02*
X20321429Y18891443D01*
X21007143Y18334300D02*
X21692858Y18334300D01*
X22592858Y17991443D02*
X22078572Y17991443D01*
X22335715Y17991443D02*
X22335715Y18891443D01*
X22335715Y18891443D02*
X22250001Y18762872D01*
X22250001Y18762872D02*
X22164286Y18677158D01*
X22164286Y18677158D02*
X22078572Y18634300D01*
X23150001Y18891443D02*
X23235715Y18891443D01*
X23235715Y18891443D02*
X23321429Y18848586D01*
X23321429Y18848586D02*
X23364287Y18805729D01*
X23364287Y18805729D02*
X23407144Y18720015D01*
X23407144Y18720015D02*
X23450001Y18548586D01*
X23450001Y18548586D02*
X23450001Y18334300D01*
X23450001Y18334300D02*
X23407144Y18162872D01*
X23407144Y18162872D02*
X23364287Y18077158D01*
X23364287Y18077158D02*
X23321429Y18034300D01*
X23321429Y18034300D02*
X23235715Y17991443D01*
X23235715Y17991443D02*
X23150001Y17991443D01*
X23150001Y17991443D02*
X23064287Y18034300D01*
X23064287Y18034300D02*
X23021429Y18077158D01*
X23021429Y18077158D02*
X22978572Y18162872D01*
X22978572Y18162872D02*
X22935715Y18334300D01*
X22935715Y18334300D02*
X22935715Y18548586D01*
X22935715Y18548586D02*
X22978572Y18720015D01*
X22978572Y18720015D02*
X23021429Y18805729D01*
X23021429Y18805729D02*
X23064287Y18848586D01*
X23064287Y18848586D02*
X23150001Y18891443D01*
X24992858Y17991443D02*
X24478572Y17991443D01*
X24735715Y17991443D02*
X24735715Y18891443D01*
X24735715Y18891443D02*
X24650001Y18762872D01*
X24650001Y18762872D02*
X24564286Y18677158D01*
X24564286Y18677158D02*
X24478572Y18634300D01*
X25335715Y18805729D02*
X25378572Y18848586D01*
X25378572Y18848586D02*
X25464287Y18891443D01*
X25464287Y18891443D02*
X25678572Y18891443D01*
X25678572Y18891443D02*
X25764287Y18848586D01*
X25764287Y18848586D02*
X25807144Y18805729D01*
X25807144Y18805729D02*
X25850001Y18720015D01*
X25850001Y18720015D02*
X25850001Y18634300D01*
X25850001Y18634300D02*
X25807144Y18505729D01*
X25807144Y18505729D02*
X25292858Y17991443D01*
X25292858Y17991443D02*
X25850001Y17991443D01*
X26235715Y18077158D02*
X26278572Y18034300D01*
X26278572Y18034300D02*
X26235715Y17991443D01*
X26235715Y17991443D02*
X26192858Y18034300D01*
X26192858Y18034300D02*
X26235715Y18077158D01*
X26235715Y18077158D02*
X26235715Y17991443D01*
X26235715Y18548586D02*
X26278572Y18505729D01*
X26278572Y18505729D02*
X26235715Y18462872D01*
X26235715Y18462872D02*
X26192858Y18505729D01*
X26192858Y18505729D02*
X26235715Y18548586D01*
X26235715Y18548586D02*
X26235715Y18462872D01*
X26835715Y18891443D02*
X26921429Y18891443D01*
X26921429Y18891443D02*
X27007143Y18848586D01*
X27007143Y18848586D02*
X27050001Y18805729D01*
X27050001Y18805729D02*
X27092858Y18720015D01*
X27092858Y18720015D02*
X27135715Y18548586D01*
X27135715Y18548586D02*
X27135715Y18334300D01*
X27135715Y18334300D02*
X27092858Y18162872D01*
X27092858Y18162872D02*
X27050001Y18077158D01*
X27050001Y18077158D02*
X27007143Y18034300D01*
X27007143Y18034300D02*
X26921429Y17991443D01*
X26921429Y17991443D02*
X26835715Y17991443D01*
X26835715Y17991443D02*
X26750001Y18034300D01*
X26750001Y18034300D02*
X26707143Y18077158D01*
X26707143Y18077158D02*
X26664286Y18162872D01*
X26664286Y18162872D02*
X26621429Y18334300D01*
X26621429Y18334300D02*
X26621429Y18548586D01*
X26621429Y18548586D02*
X26664286Y18720015D01*
X26664286Y18720015D02*
X26707143Y18805729D01*
X26707143Y18805729D02*
X26750001Y18848586D01*
X26750001Y18848586D02*
X26835715Y18891443D01*
X27692858Y18891443D02*
X27778572Y18891443D01*
X27778572Y18891443D02*
X27864286Y18848586D01*
X27864286Y18848586D02*
X27907144Y18805729D01*
X27907144Y18805729D02*
X27950001Y18720015D01*
X27950001Y18720015D02*
X27992858Y18548586D01*
X27992858Y18548586D02*
X27992858Y18334300D01*
X27992858Y18334300D02*
X27950001Y18162872D01*
X27950001Y18162872D02*
X27907144Y18077158D01*
X27907144Y18077158D02*
X27864286Y18034300D01*
X27864286Y18034300D02*
X27778572Y17991443D01*
X27778572Y17991443D02*
X27692858Y17991443D01*
X27692858Y17991443D02*
X27607144Y18034300D01*
X27607144Y18034300D02*
X27564286Y18077158D01*
X27564286Y18077158D02*
X27521429Y18162872D01*
X27521429Y18162872D02*
X27478572Y18334300D01*
X27478572Y18334300D02*
X27478572Y18548586D01*
X27478572Y18548586D02*
X27521429Y18720015D01*
X27521429Y18720015D02*
X27564286Y18805729D01*
X27564286Y18805729D02*
X27607144Y18848586D01*
X27607144Y18848586D02*
X27692858Y18891443D01*
D11*
X16816666Y5666894D02*
X17616666Y5666894D01*
X17216666Y4266894D02*
X17216666Y5666894D01*
X18083333Y4800227D02*
X19150000Y4800227D01*
X19816666Y4266894D02*
X19816666Y5666894D01*
X19816666Y5666894D02*
X20283333Y4666894D01*
X20283333Y4666894D02*
X20749999Y5666894D01*
X20749999Y5666894D02*
X20749999Y4266894D01*
X21416666Y4266894D02*
X21416666Y5666894D01*
X22083333Y4266894D02*
X22083333Y5666894D01*
X22083333Y5666894D02*
X22883333Y4266894D01*
X22883333Y4266894D02*
X22883333Y5666894D01*
X23550000Y5666894D02*
X23550000Y4533560D01*
X23550000Y4533560D02*
X23616667Y4400227D01*
X23616667Y4400227D02*
X23683333Y4333560D01*
X23683333Y4333560D02*
X23816667Y4266894D01*
X23816667Y4266894D02*
X24083333Y4266894D01*
X24083333Y4266894D02*
X24216667Y4333560D01*
X24216667Y4333560D02*
X24283333Y4400227D01*
X24283333Y4400227D02*
X24350000Y4533560D01*
X24350000Y4533560D02*
X24350000Y5666894D01*
X24950000Y4333560D02*
X25150000Y4266894D01*
X25150000Y4266894D02*
X25483334Y4266894D01*
X25483334Y4266894D02*
X25616667Y4333560D01*
X25616667Y4333560D02*
X25683334Y4400227D01*
X25683334Y4400227D02*
X25750000Y4533560D01*
X25750000Y4533560D02*
X25750000Y4666894D01*
X25750000Y4666894D02*
X25683334Y4800227D01*
X25683334Y4800227D02*
X25616667Y4866894D01*
X25616667Y4866894D02*
X25483334Y4933560D01*
X25483334Y4933560D02*
X25216667Y5000227D01*
X25216667Y5000227D02*
X25083334Y5066894D01*
X25083334Y5066894D02*
X25016667Y5133560D01*
X25016667Y5133560D02*
X24950000Y5266894D01*
X24950000Y5266894D02*
X24950000Y5400227D01*
X24950000Y5400227D02*
X25016667Y5533560D01*
X25016667Y5533560D02*
X25083334Y5600227D01*
X25083334Y5600227D02*
X25216667Y5666894D01*
X25216667Y5666894D02*
X25550000Y5666894D01*
X25550000Y5666894D02*
X25750000Y5600227D01*
%TO.C,R1*%
D12*
X14262742Y21522500D02*
X14737258Y21522500D01*
X14262742Y20477500D02*
X14737258Y20477500D01*
%TO.C,R5*%
X13762742Y3522500D02*
X14237258Y3522500D01*
X13762742Y2477500D02*
X14237258Y2477500D01*
%TO.C,R4*%
X17262742Y3522500D02*
X17737258Y3522500D01*
X17262742Y2477500D02*
X17737258Y2477500D01*
%TO.C,SW1*%
D10*
X38450000Y9500000D02*
X38450000Y13500000D01*
X40200000Y14050000D02*
X41800000Y14050000D01*
X40200000Y8950000D02*
X41800000Y8950000D01*
X43550000Y9500000D02*
X43550000Y13500000D01*
%TO.C,R8*%
D12*
X20762742Y3522500D02*
X21237258Y3522500D01*
X20762742Y2477500D02*
X21237258Y2477500D01*
%TO.C,R2*%
X26262742Y21522500D02*
X26737258Y21522500D01*
X26262742Y20477500D02*
X26737258Y20477500D01*
%TO.C,DS1*%
D10*
X7100000Y16000000D02*
X7100000Y6000000D01*
X7100000Y16000000D02*
X8550000Y16000000D01*
X7100000Y6000000D02*
X8550000Y6000000D01*
X34150000Y16000000D02*
X35600000Y16000000D01*
X34150000Y6000000D02*
X35600000Y6000000D01*
X35600000Y16000000D02*
X35600000Y6000000D01*
D13*
X13200000Y6000000D02*
G75*
G02*
X12900000Y6000000I-150000J0D01*
G01*
X12900000Y6000000D02*
G75*
G02*
X13200000Y6000000I150000J0D01*
G01*
%TO.C,R3*%
D12*
X24262742Y3522500D02*
X24737258Y3522500D01*
X24262742Y2477500D02*
X24737258Y2477500D01*
%TO.C,R6*%
X18262742Y21522500D02*
X18737258Y21522500D01*
X18262742Y20477500D02*
X18737258Y20477500D01*
%TO.C,R7*%
X27762742Y3522500D02*
X28237258Y3522500D01*
X27762742Y2477500D02*
X28237258Y2477500D01*
%TD*%
%LPC*%
D14*
%TO.C,R1*%
X13675000Y21000000D03*
X15325000Y21000000D03*
%TD*%
%TO.C,R5*%
X13175000Y3000000D03*
X14825000Y3000000D03*
%TD*%
D15*
%TO.C,H1*%
X4000000Y11500000D03*
%TD*%
D14*
%TO.C,R4*%
X16675000Y3000000D03*
X18325000Y3000000D03*
%TD*%
D16*
%TO.C,SW1*%
X39125000Y8400000D03*
X39125000Y14600000D03*
X42875000Y8400000D03*
X42875000Y14600000D03*
%TD*%
D14*
%TO.C,R8*%
X20175000Y3000000D03*
X21825000Y3000000D03*
%TD*%
%TO.C,R2*%
X25675000Y21000000D03*
X27325000Y21000000D03*
%TD*%
D17*
%TO.C,DS1*%
X9920000Y15300000D03*
X9920000Y6700000D03*
X32780000Y15300000D03*
X32780000Y6700000D03*
D18*
X15000000Y6700000D03*
X17540000Y6700000D03*
X20080000Y6700000D03*
X22620000Y6700000D03*
X25160000Y6700000D03*
X27700000Y6700000D03*
X27700000Y15300000D03*
X25160000Y15300000D03*
X22620000Y15300000D03*
X20080000Y15300000D03*
X17540000Y15300000D03*
X15000000Y15300000D03*
%TD*%
D14*
%TO.C,R3*%
X23675000Y3000000D03*
X25325000Y3000000D03*
%TD*%
%TO.C,R6*%
X17675000Y21000000D03*
X19325000Y21000000D03*
%TD*%
%TO.C,R7*%
X27175000Y3000000D03*
X28825000Y3000000D03*
%TD*%
D19*
%TO.C,J1*%
X40000000Y1960000D03*
X38984000Y7040000D03*
X41016000Y7040000D03*
%TD*%
%LPD*%
M02*
