M48
; DRILL file KiCad 10.0.4 date 2026-07-22T04:32:01
; FORMAT={-:-/ absolute / metric / decimal}
; #@! TF.CreationDate,2026-07-22T04:32:01+01:00
; #@! TF.GenerationSoftware,Kicad,Pcbnew,10.0.4
; #@! TF.FileFunction,Plated,1,4,PTH
FMAT,2
METRIC
; #@! TA.AperFunction,Plated,PTH,ViaDrill
T1C0.300
; #@! TA.AperFunction,Plated,PTH,ComponentDrill
T2C4.000
%
G90
G05
T1
X1.827Y15.909
X5.248Y3.029
X13.879Y2.296
X15.025Y16.86
X16.675Y3.929
X21.59Y21.776
X23.691Y3.934
X25.986Y3.748
X26.237Y4.811
X26.293Y16.647
X29.463Y6.391
X32.062Y20.333
X33.069Y16.893
X34.741Y15.356
X34.757Y20.575
X35.083Y13.828
X35.293Y18.021
X35.411Y16.559
X35.657Y11.471
X35.772Y18.636
X36.007Y21.5
X36.284Y16.452
X36.75Y18.4
X36.771Y15.872
X37.856Y20.64
X38.187Y10.5
X38.27Y12.235
X39.6Y20.23
X40.012Y10.828
X40.498Y20.232
X40.759Y12.24
X41.036Y11.058
X41.072Y21.618
X42.444Y16.853
X42.63Y15.75
X43.487Y15.724
X44.089Y16.198
T2
X4.0Y11.5
M30
