%TF.GenerationSoftware,KiCad,Pcbnew,10.0.4*%
%TF.CreationDate,2026-07-22T04:32:01+01:00*%
%TF.ProjectId,countdown,636f756e-7464-46f7-976e-2e6b69636164,rev?*%
%TF.SameCoordinates,Original*%
%TF.FileFunction,Copper,L3,Inr*%
%TF.FilePolarity,Positive*%
%FSLAX46Y46*%
G04 Gerber Fmt 4.6, Leading zero omitted, Abs format (unit mm)*
G04 Created by KiCad (PCBNEW 10.0.4) date 2026-07-22 04:32:01*
%MOMM*%
%LPD*%
G01*
G04 APERTURE LIST*
%TA.AperFunction,ComponentPad*%
%ADD10C,6.600000*%
%TD*%
%TA.AperFunction,ViaPad*%
%ADD11C,0.600000*%
%TD*%
%TA.AperFunction,Conductor*%
%ADD12C,0.300000*%
%TD*%
%TA.AperFunction,Conductor*%
%ADD13C,0.200000*%
%TD*%
G04 APERTURE END LIST*
D10*
%TO.N,GND*%
%TO.C,H1*%
X4000000Y11500000D03*
%TD*%
D11*
%TO.N,SEG_A*%
X35083300Y13827700D03*
%TO.N,SEG_E*%
X34740900Y15356500D03*
X13879000Y2296000D03*
%TO.N,GND*%
X42630300Y15749900D03*
X35657000Y11471200D03*
X5248300Y3029200D03*
X41071500Y21618500D03*
X37856200Y20639900D03*
X41036000Y11057800D03*
%TO.N,SEG_D*%
X16675000Y3928900D03*
X36283800Y16451600D03*
%TO.N,BTN*%
X42444000Y16853400D03*
%TO.N,SEG_DP*%
X36750000Y18400200D03*
X25986200Y3748200D03*
%TO.N,SEG_B*%
X35410700Y16559400D03*
%TO.N,DIG_4*%
X40497700Y20232000D03*
X29463200Y6391400D03*
%TO.N,DIG_3*%
X39600000Y20229900D03*
X26292700Y16646600D03*
%TO.N,DIG_2*%
X33069000Y16892700D03*
%TO.N,DIG_1*%
X35771800Y18635500D03*
X15024700Y16860200D03*
%TO.N,SEG_C*%
X23691400Y3933700D03*
X36770700Y15872400D03*
%TO.N,SEG_F*%
X21590000Y21776400D03*
X32062300Y20332800D03*
%TO.N,SEG_G*%
X26236900Y4811500D03*
X35293300Y18021500D03*
%TO.N,VDD*%
X36006900Y21500000D03*
X38187200Y10500200D03*
X44089100Y16198200D03*
%TO.N,LSE_IN*%
X40758700Y12240100D03*
X34756800Y20575000D03*
%TO.N,LSE_OUT*%
X38270200Y12234700D03*
X40012500Y10828000D03*
%TO.N,BOOT0*%
X1827500Y15908500D03*
X43487300Y15723900D03*
%TD*%
%TO.N,GND*%
D12*
X4000000Y11500000D02*
X35657000Y11500000D01*
X35657000Y11500000D02*
X35657000Y11471200D01*
X40136700Y11500000D02*
X40593800Y11500000D01*
X35657000Y11500000D02*
X40136700Y11500000D01*
X40136700Y13256300D02*
X42630300Y15749900D01*
X40136700Y11500000D02*
X40136700Y13256300D01*
X40593800Y11500000D02*
X41036000Y11057800D01*
%TO.N,DIG_3*%
D13*
X39151200Y19781100D02*
X39600000Y20229900D01*
X29427200Y19781100D02*
X39151200Y19781100D01*
X26292700Y16646600D02*
X29427200Y19781100D01*
%TO.N,DIG_1*%
X15801400Y16083500D02*
X26667700Y16083500D01*
X15024700Y16860200D02*
X15801400Y16083500D01*
X26667700Y16083500D02*
X29219700Y18635500D01*
X29219700Y18635500D02*
X35771800Y18635500D01*
%TO.N,SEG_F*%
X32062300Y20332800D02*
X30618700Y21776400D01*
X30618700Y21776400D02*
X21590000Y21776400D01*
%TO.N,BOOT0*%
X1827500Y15908500D02*
X2025300Y15710700D01*
X27165200Y15908500D02*
X35919000Y15908500D01*
X36507500Y15320000D02*
X41420300Y15320000D01*
X41420300Y15320000D02*
X42401900Y16301600D01*
X35919000Y15908500D02*
X36507500Y15320000D01*
X2025300Y15710700D02*
X26967400Y15710700D01*
X42909600Y16301600D02*
X43487300Y15723900D01*
X26967400Y15710700D02*
X27165200Y15908500D01*
X42401900Y16301600D02*
X42909600Y16301600D01*
%TD*%
%TA.AperFunction,Conductor*%
%TO.N,VDD*%
G36*
X43002777Y22699345D02*
G01*
X43296701Y22682838D01*
X43307724Y22681596D01*
X43595224Y22632748D01*
X43606018Y22630285D01*
X43886251Y22549551D01*
X43896722Y22545887D01*
X44166134Y22434292D01*
X44176136Y22429475D01*
X44431353Y22288422D01*
X44440748Y22282519D01*
X44678591Y22113761D01*
X44687242Y22106861D01*
X44904696Y21912532D01*
X44912531Y21904697D01*
X45106859Y21687245D01*
X45113761Y21678589D01*
X45207821Y21546025D01*
X45282515Y21440754D01*
X45288421Y21431354D01*
X45429474Y21176137D01*
X45434291Y21166135D01*
X45545884Y20896727D01*
X45549551Y20886248D01*
X45630280Y20606034D01*
X45632750Y20595210D01*
X45681594Y20307730D01*
X45682837Y20296698D01*
X45699344Y20002779D01*
X45699500Y19997228D01*
X45699500Y3002774D01*
X45699344Y2997223D01*
X45682837Y2703303D01*
X45681594Y2692271D01*
X45632750Y2404791D01*
X45630280Y2393967D01*
X45549551Y2113753D01*
X45545884Y2103274D01*
X45434291Y1833866D01*
X45429474Y1823864D01*
X45288421Y1568647D01*
X45282515Y1559247D01*
X45113769Y1321421D01*
X45106851Y1312748D01*
X44958628Y1146886D01*
X44912538Y1095311D01*
X44904689Y1087462D01*
X44687252Y893149D01*
X44678579Y886231D01*
X44440753Y717485D01*
X44431353Y711579D01*
X44176136Y570526D01*
X44166134Y565709D01*
X43896726Y454116D01*
X43886247Y450449D01*
X43606033Y369720D01*
X43595209Y367250D01*
X43307729Y318406D01*
X43296697Y317163D01*
X43002778Y300656D01*
X42997227Y300500D01*
X3002773Y300500D01*
X2997222Y300656D01*
X2703302Y317163D01*
X2692270Y318406D01*
X2404790Y367250D01*
X2393966Y369720D01*
X2113752Y450449D01*
X2103273Y454116D01*
X1833865Y565709D01*
X1823863Y570526D01*
X1568646Y711579D01*
X1559246Y717485D01*
X1321411Y886239D01*
X1312755Y893141D01*
X1095303Y1087469D01*
X1087468Y1095304D01*
X893139Y1312758D01*
X886239Y1321409D01*
X717481Y1559252D01*
X711578Y1568647D01*
X570525Y1823864D01*
X565708Y1833866D01*
X462301Y2083512D01*
X454113Y2103278D01*
X450448Y2113753D01*
X377063Y2368475D01*
X13328500Y2368475D01*
X13328500Y2223526D01*
X13366017Y2083511D01*
X13438487Y1957990D01*
X13438489Y1957988D01*
X13438491Y1957985D01*
X13540985Y1855491D01*
X13540987Y1855490D01*
X13540989Y1855488D01*
X13666511Y1783018D01*
X13666512Y1783018D01*
X13666515Y1783016D01*
X13806525Y1745500D01*
X13806526Y1745500D01*
X13951474Y1745500D01*
X13951475Y1745500D01*
X14091485Y1783016D01*
X14091487Y1783018D01*
X14091489Y1783018D01*
X14217010Y1855488D01*
X14217010Y1855489D01*
X14217015Y1855491D01*
X14319509Y1957985D01*
X14363083Y2033458D01*
X39254200Y2033458D01*
X39254200Y1886543D01*
X39282860Y1742459D01*
X39282860Y1742457D01*
X39339078Y1606734D01*
X39339078Y1606733D01*
X39364527Y1568647D01*
X39420699Y1484580D01*
X39524580Y1380699D01*
X39646731Y1299080D01*
X39782458Y1242860D01*
X39926545Y1214200D01*
X39926547Y1214200D01*
X40073453Y1214200D01*
X40073455Y1214200D01*
X40217542Y1242860D01*
X40353269Y1299080D01*
X40475420Y1380699D01*
X40579301Y1484580D01*
X40660920Y1606731D01*
X40717140Y1742458D01*
X40745800Y1886545D01*
X40745800Y2033455D01*
X40717140Y2177542D01*
X40660921Y2313267D01*
X40660921Y2313268D01*
X40624032Y2368475D01*
X40579301Y2435420D01*
X40475420Y2539301D01*
X40353269Y2620920D01*
X40353268Y2620921D01*
X40353266Y2620922D01*
X40217542Y2677140D01*
X40073457Y2705800D01*
X40073455Y2705800D01*
X39926545Y2705800D01*
X39926542Y2705800D01*
X39782458Y2677140D01*
X39782456Y2677140D01*
X39646733Y2620922D01*
X39646732Y2620922D01*
X39524580Y2539301D01*
X39524576Y2539298D01*
X39420702Y2435424D01*
X39420699Y2435420D01*
X39339078Y2313268D01*
X39339078Y2313267D01*
X39282860Y2177544D01*
X39282860Y2177542D01*
X39254200Y2033458D01*
X14363083Y2033458D01*
X14391984Y2083515D01*
X14429500Y2223525D01*
X14429500Y2368475D01*
X14391984Y2508485D01*
X14391982Y2508488D01*
X14391982Y2508490D01*
X14319512Y2634011D01*
X14319510Y2634013D01*
X14319509Y2634015D01*
X14217015Y2736509D01*
X14217012Y2736511D01*
X14217010Y2736513D01*
X14091488Y2808983D01*
X14091489Y2808983D01*
X14061896Y2816913D01*
X13951475Y2846500D01*
X13806525Y2846500D01*
X13744790Y2829959D01*
X13666510Y2808983D01*
X13540989Y2736513D01*
X13438487Y2634011D01*
X13366017Y2508490D01*
X13328500Y2368475D01*
X377063Y2368475D01*
X369715Y2393982D01*
X367252Y2404776D01*
X318404Y2692276D01*
X317162Y2703303D01*
X300656Y2997223D01*
X300500Y3002774D01*
X300500Y3101675D01*
X4697800Y3101675D01*
X4697800Y2956726D01*
X4735317Y2816711D01*
X4807787Y2691190D01*
X4807789Y2691188D01*
X4807791Y2691185D01*
X4910285Y2588691D01*
X4910287Y2588690D01*
X4910289Y2588688D01*
X5035811Y2516218D01*
X5035812Y2516218D01*
X5035815Y2516216D01*
X5175825Y2478700D01*
X5175826Y2478700D01*
X5320774Y2478700D01*
X5320775Y2478700D01*
X5460785Y2516216D01*
X5460787Y2516218D01*
X5460789Y2516218D01*
X5586310Y2588688D01*
X5586310Y2588689D01*
X5586315Y2588691D01*
X5688809Y2691185D01*
X5689436Y2692271D01*
X5761282Y2816711D01*
X5761282Y2816713D01*
X5761284Y2816715D01*
X5798800Y2956725D01*
X5798800Y3101675D01*
X5761284Y3241685D01*
X5761282Y3241688D01*
X5761282Y3241690D01*
X5688812Y3367211D01*
X5688810Y3367213D01*
X5688809Y3367215D01*
X5586315Y3469709D01*
X5586312Y3469711D01*
X5586310Y3469713D01*
X5460788Y3542183D01*
X5460789Y3542183D01*
X5431196Y3550113D01*
X5320775Y3579700D01*
X5175825Y3579700D01*
X5114090Y3563159D01*
X5035810Y3542183D01*
X4910289Y3469713D01*
X4807787Y3367211D01*
X4735317Y3241690D01*
X4697800Y3101675D01*
X300500Y3101675D01*
X300500Y4001375D01*
X16124500Y4001375D01*
X16124500Y3856426D01*
X16162017Y3716411D01*
X16234487Y3590890D01*
X16234489Y3590888D01*
X16234491Y3590885D01*
X16336985Y3488391D01*
X16336987Y3488390D01*
X16336989Y3488388D01*
X16462511Y3415918D01*
X16462512Y3415918D01*
X16462515Y3415916D01*
X16602525Y3378400D01*
X16602526Y3378400D01*
X16747474Y3378400D01*
X16747475Y3378400D01*
X16887485Y3415916D01*
X16887487Y3415918D01*
X16887489Y3415918D01*
X17013010Y3488388D01*
X17013010Y3488389D01*
X17013015Y3488391D01*
X17115509Y3590885D01*
X17187984Y3716415D01*
X17225500Y3856425D01*
X17225500Y4001375D01*
X17224214Y4006175D01*
X23140900Y4006175D01*
X23140900Y3861225D01*
X23170487Y3750804D01*
X23178417Y3721211D01*
X23250887Y3595690D01*
X23250889Y3595688D01*
X23250891Y3595685D01*
X23353385Y3493191D01*
X23353387Y3493190D01*
X23353389Y3493188D01*
X23478911Y3420718D01*
X23478912Y3420718D01*
X23478915Y3420716D01*
X23618925Y3383200D01*
X23618926Y3383200D01*
X23763874Y3383200D01*
X23763875Y3383200D01*
X23903885Y3420716D01*
X23903887Y3420718D01*
X23903889Y3420718D01*
X24029410Y3493188D01*
X24029410Y3493189D01*
X24029415Y3493191D01*
X24131909Y3595685D01*
X24204384Y3721215D01*
X24231035Y3820675D01*
X25435700Y3820675D01*
X25435700Y3675726D01*
X25473217Y3535711D01*
X25545687Y3410190D01*
X25545689Y3410188D01*
X25545691Y3410185D01*
X25648185Y3307691D01*
X25648187Y3307690D01*
X25648189Y3307688D01*
X25773711Y3235218D01*
X25773712Y3235218D01*
X25773715Y3235216D01*
X25913725Y3197700D01*
X25913726Y3197700D01*
X26058674Y3197700D01*
X26058675Y3197700D01*
X26198685Y3235216D01*
X26198687Y3235218D01*
X26198689Y3235218D01*
X26324210Y3307688D01*
X26324210Y3307689D01*
X26324215Y3307691D01*
X26426709Y3410185D01*
X26432790Y3420718D01*
X26499182Y3535711D01*
X26499182Y3535713D01*
X26499184Y3535715D01*
X26536700Y3675725D01*
X26536700Y3820675D01*
X26499184Y3960685D01*
X26499182Y3960688D01*
X26499182Y3960690D01*
X26426712Y4086211D01*
X26426710Y4086213D01*
X26426709Y4086215D01*
X26385311Y4127613D01*
X26357536Y4182127D01*
X26367107Y4242559D01*
X26410372Y4285824D01*
X26429689Y4293239D01*
X26449385Y4298516D01*
X26574915Y4370991D01*
X26677409Y4473485D01*
X26749884Y4599015D01*
X26787400Y4739025D01*
X26787400Y4883975D01*
X26749884Y5023985D01*
X26749882Y5023988D01*
X26749882Y5023990D01*
X26677412Y5149511D01*
X26677410Y5149513D01*
X26677409Y5149515D01*
X26574915Y5252009D01*
X26574912Y5252011D01*
X26574910Y5252013D01*
X26449388Y5324483D01*
X26449389Y5324483D01*
X26419796Y5332413D01*
X26309375Y5362000D01*
X26164425Y5362000D01*
X26102690Y5345459D01*
X26024410Y5324483D01*
X25898889Y5252013D01*
X25796387Y5149511D01*
X25723917Y5023990D01*
X25686400Y4883975D01*
X25686400Y4739026D01*
X25723917Y4599011D01*
X25796387Y4473490D01*
X25796389Y4473488D01*
X25796391Y4473485D01*
X25837787Y4432089D01*
X25865563Y4377574D01*
X25855992Y4317142D01*
X25812727Y4273877D01*
X25793407Y4266461D01*
X25773714Y4261184D01*
X25773711Y4261183D01*
X25648189Y4188713D01*
X25545687Y4086211D01*
X25473217Y3960690D01*
X25435700Y3820675D01*
X24231035Y3820675D01*
X24241900Y3861225D01*
X24241900Y4006175D01*
X24204384Y4146185D01*
X24204382Y4146188D01*
X24204382Y4146190D01*
X24131912Y4271711D01*
X24131910Y4271713D01*
X24131909Y4271715D01*
X24029415Y4374209D01*
X24029412Y4374211D01*
X24029410Y4374213D01*
X23903888Y4446683D01*
X23903889Y4446683D01*
X23803863Y4473485D01*
X23763875Y4484200D01*
X23618925Y4484200D01*
X23578937Y4473485D01*
X23478910Y4446683D01*
X23353389Y4374213D01*
X23250887Y4271711D01*
X23178417Y4146190D01*
X23162347Y4086215D01*
X23140900Y4006175D01*
X17224214Y4006175D01*
X17187984Y4141385D01*
X17187982Y4141388D01*
X17187982Y4141390D01*
X17115512Y4266911D01*
X17115510Y4266913D01*
X17115509Y4266915D01*
X17013015Y4369409D01*
X17013012Y4369411D01*
X17013010Y4369413D01*
X16887488Y4441883D01*
X16887489Y4441883D01*
X16857896Y4449813D01*
X16747475Y4479400D01*
X16602525Y4479400D01*
X16540790Y4462859D01*
X16462510Y4441883D01*
X16336989Y4369413D01*
X16234487Y4266911D01*
X16162017Y4141390D01*
X16124500Y4001375D01*
X300500Y4001375D01*
X300500Y6463875D01*
X28912700Y6463875D01*
X28912700Y6318926D01*
X28950217Y6178911D01*
X29022687Y6053390D01*
X29022689Y6053388D01*
X29022691Y6053385D01*
X29125185Y5950891D01*
X29125187Y5950890D01*
X29125189Y5950888D01*
X29250711Y5878418D01*
X29250712Y5878418D01*
X29250715Y5878416D01*
X29390725Y5840900D01*
X29390726Y5840900D01*
X29535674Y5840900D01*
X29535675Y5840900D01*
X29675685Y5878416D01*
X29675687Y5878418D01*
X29675689Y5878418D01*
X29801210Y5950888D01*
X29801210Y5950889D01*
X29801215Y5950891D01*
X29903709Y6053385D01*
X29976184Y6178915D01*
X30013700Y6318925D01*
X30013700Y6463875D01*
X29976184Y6603885D01*
X29976182Y6603888D01*
X29976182Y6603890D01*
X29903712Y6729411D01*
X29903710Y6729413D01*
X29903709Y6729415D01*
X29801215Y6831909D01*
X29801212Y6831911D01*
X29801210Y6831913D01*
X29675688Y6904383D01*
X29675689Y6904383D01*
X29646096Y6912313D01*
X29535675Y6941900D01*
X29390725Y6941900D01*
X29328990Y6925359D01*
X29250710Y6904383D01*
X29125189Y6831913D01*
X29022687Y6729411D01*
X28950217Y6603890D01*
X28912700Y6463875D01*
X300500Y6463875D01*
X300500Y7113458D01*
X38238200Y7113458D01*
X38238200Y6966543D01*
X38266860Y6822459D01*
X38266860Y6822457D01*
X38323078Y6686734D01*
X38323078Y6686733D01*
X38363749Y6625866D01*
X38404699Y6564580D01*
X38508580Y6460699D01*
X38630731Y6379080D01*
X38766458Y6322860D01*
X38910545Y6294200D01*
X38910547Y6294200D01*
X39057453Y6294200D01*
X39057455Y6294200D01*
X39201542Y6322860D01*
X39337269Y6379080D01*
X39459420Y6460699D01*
X39563301Y6564580D01*
X39644920Y6686731D01*
X39701140Y6822458D01*
X39729800Y6966545D01*
X39729800Y7113455D01*
X39729799Y7113458D01*
X40270200Y7113458D01*
X40270200Y6966543D01*
X40298860Y6822459D01*
X40298860Y6822457D01*
X40355078Y6686734D01*
X40355078Y6686733D01*
X40395749Y6625866D01*
X40436699Y6564580D01*
X40540580Y6460699D01*
X40662731Y6379080D01*
X40798458Y6322860D01*
X40942545Y6294200D01*
X40942547Y6294200D01*
X41089453Y6294200D01*
X41089455Y6294200D01*
X41233542Y6322860D01*
X41369269Y6379080D01*
X41491420Y6460699D01*
X41595301Y6564580D01*
X41676920Y6686731D01*
X41733140Y6822458D01*
X41761800Y6966545D01*
X41761800Y7113455D01*
X41733140Y7257542D01*
X41676921Y7393267D01*
X41676921Y7393268D01*
X41656585Y7423702D01*
X41595301Y7515420D01*
X41491420Y7619301D01*
X41369269Y7700920D01*
X41369268Y7700921D01*
X41369266Y7700922D01*
X41233542Y7757140D01*
X41089457Y7785800D01*
X41089455Y7785800D01*
X40942545Y7785800D01*
X40942542Y7785800D01*
X40798458Y7757140D01*
X40798456Y7757140D01*
X40662733Y7700922D01*
X40662732Y7700922D01*
X40540580Y7619301D01*
X40540576Y7619298D01*
X40436702Y7515424D01*
X40436699Y7515420D01*
X40355078Y7393268D01*
X40355078Y7393267D01*
X40298860Y7257544D01*
X40298860Y7257542D01*
X40270200Y7113458D01*
X39729799Y7113458D01*
X39701140Y7257542D01*
X39644921Y7393267D01*
X39644921Y7393268D01*
X39624585Y7423702D01*
X39563301Y7515420D01*
X39459420Y7619301D01*
X39337269Y7700920D01*
X39337268Y7700921D01*
X39337266Y7700922D01*
X39201542Y7757140D01*
X39057457Y7785800D01*
X39057455Y7785800D01*
X38910545Y7785800D01*
X38910542Y7785800D01*
X38766458Y7757140D01*
X38766456Y7757140D01*
X38630733Y7700922D01*
X38630732Y7700922D01*
X38508580Y7619301D01*
X38508576Y7619298D01*
X38404702Y7515424D01*
X38404699Y7515420D01*
X38323078Y7393268D01*
X38323078Y7393267D01*
X38266860Y7257544D01*
X38266860Y7257542D01*
X38238200Y7113458D01*
X300500Y7113458D01*
X300500Y10894214D01*
X319407Y10952405D01*
X368907Y10988369D01*
X430093Y10988369D01*
X479593Y10952405D01*
X496598Y10913528D01*
X551750Y10636254D01*
X653012Y10302439D01*
X786511Y9980144D01*
X786524Y9980117D01*
X950959Y9672480D01*
X1096319Y9454934D01*
X1144772Y9382419D01*
X1366080Y9112754D01*
X1612754Y8866080D01*
X1882419Y8644772D01*
X2027448Y8547867D01*
X2172479Y8450960D01*
X2480116Y8286525D01*
X2480135Y8286515D01*
X2802430Y8153016D01*
X2802432Y8153016D01*
X2802438Y8153013D01*
X3136253Y8051751D01*
X3136257Y8051751D01*
X3136258Y8051750D01*
X3478405Y7983693D01*
X3516979Y7979894D01*
X3825567Y7949500D01*
X3825575Y7949500D01*
X4174433Y7949500D01*
X4405871Y7972296D01*
X4521595Y7983693D01*
X4863742Y8051750D01*
X4863743Y8051751D01*
X4863746Y8051751D01*
X5197561Y8153013D01*
X5197563Y8153015D01*
X5197570Y8153016D01*
X5519865Y8286515D01*
X5670192Y8366867D01*
X5827520Y8450960D01*
X5827523Y8450962D01*
X6117581Y8644772D01*
X6387246Y8866080D01*
X6633920Y9112754D01*
X6855228Y9382419D01*
X7049038Y9672477D01*
X7213485Y9980135D01*
X7346984Y10302430D01*
X7403879Y10489985D01*
X7448249Y10636254D01*
X7464865Y10719790D01*
X7516307Y10978405D01*
X7519439Y11010203D01*
X7543959Y11066261D01*
X7596745Y11097200D01*
X7617962Y11099500D01*
X35209168Y11099500D01*
X35267359Y11080593D01*
X35279171Y11070504D01*
X35318983Y11030692D01*
X35318989Y11030688D01*
X35444511Y10958218D01*
X35444512Y10958218D01*
X35444515Y10958216D01*
X35584525Y10920700D01*
X35584526Y10920700D01*
X35729474Y10920700D01*
X35729475Y10920700D01*
X35869485Y10958216D01*
X35869487Y10958218D01*
X35869489Y10958218D01*
X35995010Y11030688D01*
X35995011Y11030689D01*
X35995015Y11030691D01*
X36004809Y11040485D01*
X36034829Y11070504D01*
X36089346Y11098281D01*
X36104832Y11099500D01*
X39386310Y11099500D01*
X39444501Y11080593D01*
X39480465Y11031093D01*
X39481936Y10974876D01*
X39462000Y10900478D01*
X39462000Y10755526D01*
X39499517Y10615511D01*
X39571987Y10489990D01*
X39571989Y10489988D01*
X39571991Y10489985D01*
X39674485Y10387491D01*
X39674487Y10387490D01*
X39674489Y10387488D01*
X39800011Y10315018D01*
X39800012Y10315018D01*
X39800015Y10315016D01*
X39940025Y10277500D01*
X39940026Y10277500D01*
X40084974Y10277500D01*
X40084975Y10277500D01*
X40224985Y10315016D01*
X40224987Y10315018D01*
X40224989Y10315018D01*
X40350510Y10387488D01*
X40350510Y10387489D01*
X40350515Y10387491D01*
X40453009Y10489985D01*
X40524765Y10614270D01*
X40570232Y10655210D01*
X40631083Y10661606D01*
X40680501Y10634775D01*
X40697985Y10617291D01*
X40697987Y10617290D01*
X40697989Y10617288D01*
X40823511Y10544818D01*
X40823512Y10544818D01*
X40823515Y10544816D01*
X40963525Y10507300D01*
X40963526Y10507300D01*
X41108474Y10507300D01*
X41108475Y10507300D01*
X41248485Y10544816D01*
X41248487Y10544818D01*
X41248489Y10544818D01*
X41374010Y10617288D01*
X41374010Y10617289D01*
X41374015Y10617291D01*
X41476509Y10719785D01*
X41548984Y10845315D01*
X41586500Y10985325D01*
X41586500Y11130275D01*
X41548984Y11270285D01*
X41548982Y11270288D01*
X41548982Y11270290D01*
X41476512Y11395811D01*
X41476510Y11395813D01*
X41476509Y11395815D01*
X41374015Y11498309D01*
X41374012Y11498311D01*
X41374010Y11498313D01*
X41248488Y11570783D01*
X41248484Y11570785D01*
X41105005Y11609231D01*
X41053691Y11642555D01*
X41031765Y11699677D01*
X41047601Y11758777D01*
X41081129Y11790593D01*
X41096715Y11799591D01*
X41199209Y11902085D01*
X41201091Y11905345D01*
X41271682Y12027611D01*
X41271682Y12027613D01*
X41271684Y12027615D01*
X41309200Y12167625D01*
X41309200Y12312575D01*
X41271684Y12452585D01*
X41271682Y12452588D01*
X41271682Y12452590D01*
X41199212Y12578111D01*
X41199210Y12578113D01*
X41199209Y12578115D01*
X41096715Y12680609D01*
X41096712Y12680611D01*
X41096710Y12680613D01*
X40971188Y12753083D01*
X40971189Y12753083D01*
X40941596Y12761013D01*
X40831175Y12790600D01*
X40686225Y12790600D01*
X40686222Y12790600D01*
X40661821Y12784062D01*
X40633741Y12785534D01*
X40605607Y12785534D01*
X40603419Y12787124D01*
X40600720Y12787265D01*
X40578869Y12804961D01*
X40556107Y12821498D01*
X40555271Y12824071D01*
X40553170Y12825772D01*
X40537200Y12879689D01*
X40537200Y13049399D01*
X40556107Y13107590D01*
X40566196Y13119403D01*
X42617197Y15170404D01*
X42671714Y15198181D01*
X42687201Y15199400D01*
X42702774Y15199400D01*
X42702775Y15199400D01*
X42842785Y15236916D01*
X42842787Y15236918D01*
X42842789Y15236918D01*
X42886587Y15262206D01*
X42968315Y15309391D01*
X42975794Y15316870D01*
X43030309Y15344650D01*
X43090741Y15335081D01*
X43115800Y15316876D01*
X43149285Y15283391D01*
X43149287Y15283390D01*
X43149289Y15283388D01*
X43274811Y15210918D01*
X43274812Y15210918D01*
X43274815Y15210916D01*
X43414825Y15173400D01*
X43414826Y15173400D01*
X43559774Y15173400D01*
X43559775Y15173400D01*
X43699785Y15210916D01*
X43699787Y15210918D01*
X43699789Y15210918D01*
X43825310Y15283388D01*
X43825310Y15283389D01*
X43825315Y15283391D01*
X43927809Y15385885D01*
X43928535Y15387142D01*
X44000282Y15511411D01*
X44000282Y15511413D01*
X44000284Y15511415D01*
X44037800Y15651425D01*
X44037800Y15796375D01*
X44000284Y15936385D01*
X44000282Y15936388D01*
X44000282Y15936390D01*
X43927812Y16061911D01*
X43927810Y16061913D01*
X43927809Y16061915D01*
X43825315Y16164409D01*
X43825312Y16164411D01*
X43825310Y16164413D01*
X43699788Y16236883D01*
X43699789Y16236883D01*
X43663842Y16246515D01*
X43559775Y16274400D01*
X43559774Y16274400D01*
X43473490Y16274400D01*
X43415299Y16293307D01*
X43403487Y16303396D01*
X43124814Y16582068D01*
X43124812Y16582070D01*
X43044888Y16628214D01*
X43044886Y16628215D01*
X43044882Y16628217D01*
X43042909Y16629034D01*
X43041746Y16630028D01*
X43039268Y16631458D01*
X43039533Y16631918D01*
X42996386Y16668774D01*
X42982106Y16728269D01*
X42985174Y16746120D01*
X42987517Y16754866D01*
X42994500Y16780925D01*
X42994500Y16925875D01*
X42956984Y17065885D01*
X42956982Y17065888D01*
X42956982Y17065890D01*
X42884512Y17191411D01*
X42884510Y17191413D01*
X42884509Y17191415D01*
X42782015Y17293909D01*
X42782012Y17293911D01*
X42782010Y17293913D01*
X42656488Y17366383D01*
X42656489Y17366383D01*
X42626896Y17374313D01*
X42516475Y17403900D01*
X42371525Y17403900D01*
X42309790Y17387359D01*
X42231510Y17366383D01*
X42105989Y17293913D01*
X42003487Y17191411D01*
X41931017Y17065890D01*
X41903872Y16964584D01*
X41893500Y16925875D01*
X41893500Y16780925D01*
X41902826Y16746120D01*
X41931017Y16640911D01*
X42006735Y16509765D01*
X42004683Y16508581D01*
X42021648Y16460642D01*
X42004257Y16401980D01*
X41992685Y16388068D01*
X41304114Y15699496D01*
X41249597Y15671719D01*
X41234110Y15670500D01*
X37415540Y15670500D01*
X37357349Y15689407D01*
X37321385Y15738907D01*
X37319913Y15795123D01*
X37321200Y15799925D01*
X37321200Y15944875D01*
X37283684Y16084885D01*
X37283682Y16084888D01*
X37283682Y16084890D01*
X37211212Y16210411D01*
X37211210Y16210413D01*
X37211209Y16210415D01*
X37108715Y16312909D01*
X37108712Y16312911D01*
X37108710Y16312913D01*
X36983188Y16385383D01*
X36983184Y16385385D01*
X36907676Y16405618D01*
X36856362Y16438942D01*
X36834436Y16496064D01*
X36834300Y16501244D01*
X36834300Y16524075D01*
X36826098Y16554685D01*
X36796784Y16664085D01*
X36796782Y16664088D01*
X36796782Y16664090D01*
X36724312Y16789611D01*
X36724310Y16789613D01*
X36724309Y16789615D01*
X36621815Y16892109D01*
X36621812Y16892111D01*
X36621810Y16892113D01*
X36496288Y16964583D01*
X36496289Y16964583D01*
X36421529Y16984615D01*
X36356275Y17002100D01*
X36211325Y17002100D01*
X36149590Y16985559D01*
X36071310Y16964583D01*
X35954978Y16897417D01*
X35895130Y16884695D01*
X35839234Y16909581D01*
X35835493Y16913131D01*
X35748715Y16999909D01*
X35748712Y16999911D01*
X35748710Y16999913D01*
X35623188Y17072383D01*
X35623189Y17072383D01*
X35500771Y17105185D01*
X35483175Y17109900D01*
X35338225Y17109900D01*
X35320629Y17105185D01*
X35198210Y17072383D01*
X35072689Y16999913D01*
X34970187Y16897411D01*
X34897717Y16771890D01*
X34897716Y16771885D01*
X34860200Y16631875D01*
X34860200Y16486925D01*
X34875988Y16428004D01*
X34887880Y16383623D01*
X34884677Y16322522D01*
X34846172Y16274972D01*
X34792253Y16259000D01*
X33441872Y16259000D01*
X33383681Y16277907D01*
X33347717Y16327407D01*
X33347717Y16388593D01*
X33383681Y16438093D01*
X33392372Y16443736D01*
X33407010Y16452188D01*
X33407010Y16452189D01*
X33407015Y16452191D01*
X33509509Y16554685D01*
X33552435Y16629034D01*
X33581982Y16680211D01*
X33581982Y16680213D01*
X33581984Y16680215D01*
X33619500Y16820225D01*
X33619500Y16965175D01*
X33581984Y17105185D01*
X33581982Y17105188D01*
X33581982Y17105190D01*
X33509512Y17230711D01*
X33509510Y17230713D01*
X33509509Y17230715D01*
X33407015Y17333209D01*
X33407012Y17333211D01*
X33407010Y17333213D01*
X33281488Y17405683D01*
X33281489Y17405683D01*
X33251896Y17413613D01*
X33141475Y17443200D01*
X32996525Y17443200D01*
X32934790Y17426659D01*
X32856510Y17405683D01*
X32730989Y17333213D01*
X32628487Y17230711D01*
X32556017Y17105190D01*
X32545487Y17065890D01*
X32518500Y16965175D01*
X32518500Y16820225D01*
X32531453Y16771885D01*
X32556017Y16680211D01*
X32628487Y16554690D01*
X32628489Y16554688D01*
X32628491Y16554685D01*
X32730985Y16452191D01*
X32730987Y16452190D01*
X32730989Y16452188D01*
X32745628Y16443736D01*
X32786569Y16398266D01*
X32792964Y16337416D01*
X32762372Y16284428D01*
X32706476Y16259542D01*
X32696128Y16259000D01*
X27577890Y16259000D01*
X27519699Y16277907D01*
X27483735Y16327407D01*
X27483735Y16388593D01*
X27507886Y16428004D01*
X29335886Y18256004D01*
X29390403Y18283781D01*
X29405890Y18285000D01*
X34664966Y18285000D01*
X34723157Y18266093D01*
X34759121Y18216593D01*
X34760592Y18160379D01*
X34742800Y18093975D01*
X34742800Y18093973D01*
X34742800Y17949026D01*
X34780317Y17809011D01*
X34852787Y17683490D01*
X34852789Y17683488D01*
X34852791Y17683485D01*
X34955285Y17580991D01*
X34955287Y17580990D01*
X34955289Y17580988D01*
X35080811Y17508518D01*
X35080812Y17508518D01*
X35080815Y17508516D01*
X35220825Y17471000D01*
X35220826Y17471000D01*
X35365774Y17471000D01*
X35365775Y17471000D01*
X35505785Y17508516D01*
X35505787Y17508518D01*
X35505789Y17508518D01*
X35631310Y17580988D01*
X35631310Y17580989D01*
X35631315Y17580991D01*
X35733809Y17683485D01*
X35806284Y17809015D01*
X35843800Y17949025D01*
X35843800Y18008908D01*
X35862707Y18067099D01*
X35912207Y18103063D01*
X35917150Y18104528D01*
X35984285Y18122516D01*
X35984287Y18122518D01*
X35984289Y18122518D01*
X36115435Y18198235D01*
X36116898Y18195700D01*
X36163096Y18212097D01*
X36221775Y18194762D01*
X36251496Y18162633D01*
X36309487Y18062190D01*
X36309489Y18062188D01*
X36309491Y18062185D01*
X36411985Y17959691D01*
X36411987Y17959690D01*
X36411989Y17959688D01*
X36537511Y17887218D01*
X36537512Y17887218D01*
X36537515Y17887216D01*
X36677525Y17849700D01*
X36677526Y17849700D01*
X36822474Y17849700D01*
X36822475Y17849700D01*
X36962485Y17887216D01*
X36962487Y17887218D01*
X36962489Y17887218D01*
X37088010Y17959688D01*
X37088010Y17959689D01*
X37088015Y17959691D01*
X37190509Y18062185D01*
X37225341Y18122516D01*
X37262982Y18187711D01*
X37262982Y18187713D01*
X37262984Y18187715D01*
X37300500Y18327725D01*
X37300500Y18472675D01*
X37262984Y18612685D01*
X37262982Y18612688D01*
X37262982Y18612690D01*
X37190512Y18738211D01*
X37190510Y18738213D01*
X37190509Y18738215D01*
X37088015Y18840709D01*
X37088012Y18840711D01*
X37088010Y18840713D01*
X36962488Y18913183D01*
X36962489Y18913183D01*
X36932896Y18921113D01*
X36822475Y18950700D01*
X36677525Y18950700D01*
X36615790Y18934159D01*
X36537510Y18913183D01*
X36406366Y18837465D01*
X36404913Y18839982D01*
X36358587Y18823600D01*
X36299929Y18841003D01*
X36270304Y18873065D01*
X36212309Y18973515D01*
X36109815Y19076009D01*
X36109812Y19076011D01*
X36109810Y19076013D01*
X35984288Y19148483D01*
X35984289Y19148483D01*
X35954696Y19156413D01*
X35844275Y19186000D01*
X35699325Y19186000D01*
X35637590Y19169459D01*
X35559310Y19148483D01*
X35433789Y19076013D01*
X35433784Y19076009D01*
X35372771Y19014996D01*
X35318254Y18987219D01*
X35302768Y18986000D01*
X29366787Y18986000D01*
X29308596Y19004907D01*
X29272632Y19054407D01*
X29272632Y19115593D01*
X29296784Y19155004D01*
X29543385Y19401604D01*
X29597901Y19429381D01*
X29613388Y19430600D01*
X39197342Y19430600D01*
X39197344Y19430600D01*
X39286488Y19454486D01*
X39366412Y19500630D01*
X39441300Y19575519D01*
X39516187Y19650404D01*
X39570703Y19678181D01*
X39586190Y19679400D01*
X39672474Y19679400D01*
X39672475Y19679400D01*
X39812485Y19716916D01*
X39812487Y19716918D01*
X39812489Y19716918D01*
X39938010Y19789388D01*
X39938010Y19789389D01*
X39938015Y19789391D01*
X39979897Y19831274D01*
X40034411Y19859050D01*
X40094843Y19849479D01*
X40119902Y19831273D01*
X40159683Y19791492D01*
X40159689Y19791488D01*
X40285211Y19719018D01*
X40285212Y19719018D01*
X40285215Y19719016D01*
X40425225Y19681500D01*
X40425226Y19681500D01*
X40570174Y19681500D01*
X40570175Y19681500D01*
X40710185Y19719016D01*
X40710187Y19719018D01*
X40710189Y19719018D01*
X40835710Y19791488D01*
X40835710Y19791489D01*
X40835715Y19791491D01*
X40938209Y19893985D01*
X41001021Y20002778D01*
X41010682Y20019511D01*
X41010682Y20019513D01*
X41010684Y20019515D01*
X41048200Y20159525D01*
X41048200Y20304475D01*
X41010684Y20444485D01*
X41010682Y20444488D01*
X41010682Y20444490D01*
X40938212Y20570011D01*
X40938210Y20570013D01*
X40938209Y20570015D01*
X40835715Y20672509D01*
X40835712Y20672511D01*
X40835710Y20672513D01*
X40710188Y20744983D01*
X40710189Y20744983D01*
X40680596Y20752913D01*
X40570175Y20782500D01*
X40425225Y20782500D01*
X40363490Y20765959D01*
X40285210Y20744983D01*
X40159689Y20672513D01*
X40159688Y20672512D01*
X40159685Y20672510D01*
X40159685Y20672509D01*
X40117801Y20630626D01*
X40063287Y20602850D01*
X40002855Y20612421D01*
X39977799Y20630625D01*
X39938015Y20670409D01*
X39938012Y20670411D01*
X39938010Y20670413D01*
X39812488Y20742883D01*
X39812489Y20742883D01*
X39782896Y20750813D01*
X39672475Y20780400D01*
X39527525Y20780400D01*
X39465790Y20763859D01*
X39387510Y20742883D01*
X39261989Y20670413D01*
X39159487Y20567911D01*
X39087017Y20442390D01*
X39049500Y20302375D01*
X39049500Y20230600D01*
X39030593Y20172409D01*
X38981093Y20136445D01*
X38950500Y20131600D01*
X38365431Y20131600D01*
X38307240Y20150507D01*
X38271276Y20200007D01*
X38271276Y20261193D01*
X38292963Y20296584D01*
X38292760Y20296739D01*
X38294242Y20298671D01*
X38295425Y20300602D01*
X38296709Y20301885D01*
X38346207Y20387618D01*
X38369182Y20427411D01*
X38369182Y20427413D01*
X38369184Y20427415D01*
X38406700Y20567425D01*
X38406700Y20712375D01*
X38369184Y20852385D01*
X38369182Y20852388D01*
X38369182Y20852390D01*
X38296712Y20977911D01*
X38296710Y20977913D01*
X38296709Y20977915D01*
X38194215Y21080409D01*
X38194212Y21080411D01*
X38194210Y21080413D01*
X38068688Y21152883D01*
X38068689Y21152883D01*
X38000072Y21171269D01*
X37928675Y21190400D01*
X37783725Y21190400D01*
X37721990Y21173859D01*
X37643710Y21152883D01*
X37518189Y21080413D01*
X37415687Y20977911D01*
X37343217Y20852390D01*
X37343216Y20852385D01*
X37305700Y20712375D01*
X37305700Y20567425D01*
X37319206Y20517020D01*
X37343217Y20427411D01*
X37415687Y20301890D01*
X37415689Y20301888D01*
X37415691Y20301885D01*
X37416974Y20300602D01*
X37417563Y20299445D01*
X37419640Y20296739D01*
X37419138Y20296355D01*
X37444750Y20246087D01*
X37435179Y20185655D01*
X37391914Y20142390D01*
X37346969Y20131600D01*
X35307938Y20131600D01*
X35249747Y20150507D01*
X35213783Y20200007D01*
X35213783Y20261193D01*
X35222202Y20280100D01*
X35269782Y20362511D01*
X35269782Y20362513D01*
X35269784Y20362515D01*
X35307300Y20502525D01*
X35307300Y20647475D01*
X35269784Y20787485D01*
X35269782Y20787488D01*
X35269782Y20787490D01*
X35197312Y20913011D01*
X35197310Y20913013D01*
X35197309Y20913015D01*
X35094815Y21015509D01*
X35094812Y21015511D01*
X35094810Y21015513D01*
X34969288Y21087983D01*
X34969289Y21087983D01*
X34903848Y21105518D01*
X34829275Y21125500D01*
X34684325Y21125500D01*
X34622590Y21108959D01*
X34544310Y21087983D01*
X34418789Y21015513D01*
X34316287Y20913011D01*
X34243817Y20787490D01*
X34206300Y20647475D01*
X34206300Y20502526D01*
X34243817Y20362511D01*
X34291398Y20280100D01*
X34304120Y20220252D01*
X34279234Y20164356D01*
X34226246Y20133763D01*
X34205662Y20131600D01*
X32707328Y20131600D01*
X32649137Y20150507D01*
X32613173Y20200007D01*
X32611701Y20256220D01*
X32612799Y20260320D01*
X32612800Y20260325D01*
X32612800Y20405275D01*
X32606869Y20427411D01*
X32575284Y20545285D01*
X32575282Y20545288D01*
X32575282Y20545290D01*
X32502812Y20670811D01*
X32502810Y20670813D01*
X32502809Y20670815D01*
X32400315Y20773309D01*
X32400312Y20773311D01*
X32400310Y20773313D01*
X32274788Y20845783D01*
X32274789Y20845783D01*
X32238883Y20855404D01*
X32134775Y20883300D01*
X32134774Y20883300D01*
X32048490Y20883300D01*
X31990299Y20902207D01*
X31978486Y20912296D01*
X31627364Y21263418D01*
X31199807Y21690975D01*
X40521000Y21690975D01*
X40521000Y21546025D01*
X40549208Y21440754D01*
X40558517Y21406011D01*
X40630987Y21280490D01*
X40630989Y21280488D01*
X40630991Y21280485D01*
X40733485Y21177991D01*
X40733487Y21177990D01*
X40733489Y21177988D01*
X40859011Y21105518D01*
X40859012Y21105518D01*
X40859015Y21105516D01*
X40999025Y21068000D01*
X40999026Y21068000D01*
X41143974Y21068000D01*
X41143975Y21068000D01*
X41283985Y21105516D01*
X41283987Y21105518D01*
X41283989Y21105518D01*
X41409510Y21177988D01*
X41409510Y21177989D01*
X41409515Y21177991D01*
X41512009Y21280485D01*
X41543998Y21335891D01*
X41584482Y21406011D01*
X41584482Y21406013D01*
X41584484Y21406015D01*
X41622000Y21546025D01*
X41622000Y21690975D01*
X41584484Y21830985D01*
X41584482Y21830988D01*
X41584482Y21830990D01*
X41512012Y21956511D01*
X41512010Y21956513D01*
X41512009Y21956515D01*
X41409515Y22059009D01*
X41409512Y22059011D01*
X41409510Y22059013D01*
X41283988Y22131483D01*
X41283989Y22131483D01*
X41192879Y22155896D01*
X41143975Y22169000D01*
X40999025Y22169000D01*
X40950121Y22155896D01*
X40859010Y22131483D01*
X40733489Y22059013D01*
X40630987Y21956511D01*
X40558517Y21830990D01*
X40558516Y21830985D01*
X40521000Y21690975D01*
X31199807Y21690975D01*
X30833912Y22056870D01*
X30753988Y22103014D01*
X30664844Y22126900D01*
X30664842Y22126900D01*
X22059032Y22126900D01*
X22000841Y22145807D01*
X21989029Y22155896D01*
X21928015Y22216909D01*
X21928010Y22216913D01*
X21802488Y22289383D01*
X21802489Y22289383D01*
X21772896Y22297313D01*
X21662475Y22326900D01*
X21517525Y22326900D01*
X21455790Y22310359D01*
X21377510Y22289383D01*
X21251989Y22216913D01*
X21149487Y22114411D01*
X21077017Y21988890D01*
X21077016Y21988885D01*
X21039500Y21848875D01*
X21039500Y21703925D01*
X21046291Y21678580D01*
X21077017Y21563911D01*
X21149487Y21438390D01*
X21149489Y21438388D01*
X21149491Y21438385D01*
X21251985Y21335891D01*
X21251987Y21335890D01*
X21251989Y21335888D01*
X21377511Y21263418D01*
X21377512Y21263418D01*
X21377515Y21263416D01*
X21517525Y21225900D01*
X21517526Y21225900D01*
X21662474Y21225900D01*
X21662475Y21225900D01*
X21802485Y21263416D01*
X21802487Y21263418D01*
X21802489Y21263418D01*
X21928010Y21335888D01*
X21928010Y21335889D01*
X21928015Y21335891D01*
X21958522Y21366398D01*
X21989029Y21396904D01*
X22043546Y21424681D01*
X22059032Y21425900D01*
X30432510Y21425900D01*
X30490701Y21406993D01*
X30502514Y21396904D01*
X31482804Y20416614D01*
X31485555Y20411214D01*
X31490592Y20407843D01*
X31497637Y20387501D01*
X31510581Y20362097D01*
X31511727Y20350423D01*
X31511800Y20348530D01*
X31511800Y20260325D01*
X31515771Y20245504D01*
X31516199Y20234413D01*
X31510744Y20215127D01*
X31509695Y20195119D01*
X31502611Y20186372D01*
X31499547Y20175538D01*
X31483800Y20163144D01*
X31471189Y20147570D01*
X31459687Y20144164D01*
X31451469Y20137694D01*
X31435807Y20137091D01*
X31417272Y20131600D01*
X29381056Y20131600D01*
X29291912Y20107714D01*
X29291911Y20107714D01*
X29291909Y20107713D01*
X29211990Y20061571D01*
X26376514Y17226096D01*
X26321997Y17198319D01*
X26306510Y17197100D01*
X26220225Y17197100D01*
X26199009Y17191415D01*
X26080210Y17159583D01*
X25954689Y17087113D01*
X25852187Y16984611D01*
X25779717Y16859090D01*
X25742200Y16719075D01*
X25742200Y16574126D01*
X25746354Y16558623D01*
X25743151Y16497522D01*
X25704646Y16449972D01*
X25650727Y16434000D01*
X15987590Y16434000D01*
X15929399Y16452907D01*
X15917586Y16462996D01*
X15604196Y16776386D01*
X15576419Y16830903D01*
X15575200Y16846390D01*
X15575200Y16932675D01*
X15566650Y16964584D01*
X15537684Y17072685D01*
X15537682Y17072688D01*
X15537682Y17072690D01*
X15465212Y17198211D01*
X15465210Y17198213D01*
X15465209Y17198215D01*
X15362715Y17300709D01*
X15362712Y17300711D01*
X15362710Y17300713D01*
X15237188Y17373183D01*
X15237189Y17373183D01*
X15207596Y17381113D01*
X15097175Y17410700D01*
X14952225Y17410700D01*
X14890490Y17394159D01*
X14812210Y17373183D01*
X14686689Y17300713D01*
X14584187Y17198211D01*
X14511717Y17072690D01*
X14488117Y16984615D01*
X14474200Y16932675D01*
X14474200Y16787725D01*
X14485348Y16746120D01*
X14511717Y16647711D01*
X14584187Y16522190D01*
X14584189Y16522188D01*
X14584191Y16522185D01*
X14686685Y16419691D01*
X14686687Y16419690D01*
X14686689Y16419688D01*
X14812211Y16347218D01*
X14812212Y16347218D01*
X14812215Y16347216D01*
X14952225Y16309700D01*
X15038510Y16309700D01*
X15046107Y16307232D01*
X15053997Y16308481D01*
X15074652Y16297957D01*
X15096701Y16290793D01*
X15108514Y16280704D01*
X15159014Y16230204D01*
X15186791Y16175687D01*
X15177220Y16115255D01*
X15133955Y16071990D01*
X15089010Y16061200D01*
X2431398Y16061200D01*
X2373207Y16080107D01*
X2344884Y16116034D01*
X2343729Y16115366D01*
X2268012Y16246511D01*
X2268010Y16246513D01*
X2268009Y16246515D01*
X2165515Y16349009D01*
X2165512Y16349011D01*
X2165510Y16349013D01*
X2039988Y16421483D01*
X2039989Y16421483D01*
X1978000Y16438093D01*
X1899975Y16459000D01*
X1755025Y16459000D01*
X1698060Y16443736D01*
X1615010Y16421483D01*
X1489489Y16349013D01*
X1386987Y16246511D01*
X1314517Y16120990D01*
X1277000Y15980975D01*
X1277000Y15836026D01*
X1314517Y15696011D01*
X1386987Y15570490D01*
X1386989Y15570488D01*
X1386991Y15570485D01*
X1489485Y15467991D01*
X1489487Y15467990D01*
X1489489Y15467988D01*
X1615011Y15395518D01*
X1615012Y15395518D01*
X1615015Y15395516D01*
X1755025Y15358000D01*
X1755026Y15358000D01*
X1899975Y15358000D01*
X1918044Y15362842D01*
X1969296Y15362842D01*
X1979156Y15360200D01*
X1979157Y15360200D01*
X27013542Y15360200D01*
X27013544Y15360200D01*
X27102688Y15384086D01*
X27125551Y15397286D01*
X27182612Y15430230D01*
X27220373Y15467991D01*
X27281387Y15529004D01*
X27335903Y15556781D01*
X27351390Y15558000D01*
X34095953Y15558000D01*
X34154144Y15539093D01*
X34190108Y15489593D01*
X34191579Y15433375D01*
X34190737Y15430231D01*
X34190400Y15428975D01*
X34190400Y15284025D01*
X34213402Y15198181D01*
X34227917Y15144011D01*
X34300387Y15018490D01*
X34300389Y15018488D01*
X34300391Y15018485D01*
X34402885Y14915991D01*
X34402887Y14915990D01*
X34402889Y14915988D01*
X34528411Y14843518D01*
X34528412Y14843518D01*
X34528415Y14843516D01*
X34668425Y14806000D01*
X34668426Y14806000D01*
X34813374Y14806000D01*
X34813375Y14806000D01*
X34953385Y14843516D01*
X34953387Y14843518D01*
X34953389Y14843518D01*
X35078910Y14915988D01*
X35078910Y14915989D01*
X35078915Y14915991D01*
X35181409Y15018485D01*
X35181412Y15018490D01*
X35253882Y15144011D01*
X35253882Y15144013D01*
X35253884Y15144015D01*
X35291400Y15284025D01*
X35291400Y15428975D01*
X35291063Y15430231D01*
X35290221Y15433375D01*
X35293422Y15494476D01*
X35331926Y15542027D01*
X35385847Y15558000D01*
X35732810Y15558000D01*
X35791001Y15539093D01*
X35802814Y15529004D01*
X36292288Y15039530D01*
X36332512Y15016307D01*
X36360415Y15000197D01*
X36372208Y14993388D01*
X36372209Y14993388D01*
X36372212Y14993386D01*
X36461356Y14969500D01*
X36461357Y14969500D01*
X36553644Y14969500D01*
X41044499Y14969500D01*
X41102690Y14950593D01*
X41138654Y14901093D01*
X41138654Y14839907D01*
X41114503Y14800496D01*
X39816216Y13502209D01*
X39763493Y13410889D01*
X39763492Y13410889D01*
X39763493Y13410888D01*
X39736200Y13309027D01*
X39736200Y11999500D01*
X39717293Y11941309D01*
X39667793Y11905345D01*
X39637200Y11900500D01*
X38879590Y11900500D01*
X38821399Y11919407D01*
X38785435Y11968907D01*
X38783963Y12025123D01*
X38820700Y12162226D01*
X38820700Y12307175D01*
X38819253Y12312575D01*
X38783184Y12447185D01*
X38783182Y12447188D01*
X38783182Y12447190D01*
X38710712Y12572711D01*
X38710710Y12572713D01*
X38710709Y12572715D01*
X38608215Y12675209D01*
X38608212Y12675211D01*
X38608210Y12675213D01*
X38482688Y12747683D01*
X38482689Y12747683D01*
X38453096Y12755613D01*
X38342675Y12785200D01*
X38197725Y12785200D01*
X38135990Y12768659D01*
X38057710Y12747683D01*
X37932189Y12675213D01*
X37829687Y12572711D01*
X37757217Y12447190D01*
X37719700Y12307175D01*
X37719700Y12162226D01*
X37756437Y12025123D01*
X37753235Y11964022D01*
X37714729Y11916472D01*
X37660810Y11900500D01*
X36040957Y11900500D01*
X35991457Y11913764D01*
X35869488Y11984183D01*
X35869489Y11984183D01*
X35839896Y11992113D01*
X35729475Y12021700D01*
X35584525Y12021700D01*
X35531430Y12007473D01*
X35444510Y11984183D01*
X35322543Y11913764D01*
X35273043Y11900500D01*
X7617962Y11900500D01*
X7559771Y11919407D01*
X7523807Y11968907D01*
X7519439Y11989797D01*
X7516307Y12021591D01*
X7516307Y12021595D01*
X7448250Y12363742D01*
X7448249Y12363743D01*
X7448249Y12363747D01*
X7346987Y12697562D01*
X7326227Y12747683D01*
X7213485Y13019865D01*
X7197699Y13049399D01*
X7049040Y13327521D01*
X6932314Y13502213D01*
X6855228Y13617581D01*
X6633920Y13887246D01*
X6620991Y13900175D01*
X34532800Y13900175D01*
X34532800Y13755226D01*
X34570317Y13615211D01*
X34642787Y13489690D01*
X34642789Y13489688D01*
X34642791Y13489685D01*
X34745285Y13387191D01*
X34745287Y13387190D01*
X34745289Y13387188D01*
X34870811Y13314718D01*
X34870812Y13314718D01*
X34870815Y13314716D01*
X35010825Y13277200D01*
X35010826Y13277200D01*
X35155774Y13277200D01*
X35155775Y13277200D01*
X35295785Y13314716D01*
X35295787Y13314718D01*
X35295789Y13314718D01*
X35421310Y13387188D01*
X35421310Y13387189D01*
X35421315Y13387191D01*
X35523809Y13489685D01*
X35596284Y13615215D01*
X35633800Y13755225D01*
X35633800Y13900175D01*
X35596284Y14040185D01*
X35596282Y14040188D01*
X35596282Y14040190D01*
X35523812Y14165711D01*
X35523810Y14165713D01*
X35523809Y14165715D01*
X35421315Y14268209D01*
X35421312Y14268211D01*
X35421310Y14268213D01*
X35295788Y14340683D01*
X35295789Y14340683D01*
X35241510Y14355227D01*
X35155775Y14378200D01*
X35010825Y14378200D01*
X34949090Y14361659D01*
X34870810Y14340683D01*
X34745289Y14268213D01*
X34642787Y14165711D01*
X34570317Y14040190D01*
X34532800Y13900175D01*
X6620991Y13900175D01*
X6387246Y14133920D01*
X6348508Y14165711D01*
X6117582Y14355227D01*
X5827520Y14549041D01*
X5519883Y14713476D01*
X5519871Y14713482D01*
X5519865Y14713485D01*
X5519860Y14713488D01*
X5519856Y14713489D01*
X5197561Y14846988D01*
X4863746Y14948250D01*
X4588514Y15002996D01*
X4521595Y15016307D01*
X4521593Y15016308D01*
X4174433Y15050500D01*
X4174425Y15050500D01*
X3825575Y15050500D01*
X3825567Y15050500D01*
X3478408Y15016308D01*
X3136253Y14948250D01*
X2802438Y14846988D01*
X2480143Y14713489D01*
X2480116Y14713476D01*
X2172479Y14549041D01*
X1882417Y14355227D01*
X1612759Y14133925D01*
X1366075Y13887241D01*
X1144773Y13617583D01*
X950959Y13327521D01*
X786524Y13019884D01*
X786511Y13019857D01*
X653012Y12697562D01*
X551750Y12363747D01*
X496598Y12086473D01*
X466701Y12033089D01*
X411136Y12007473D01*
X351127Y12019410D01*
X309594Y12064340D01*
X300500Y12105787D01*
X300500Y19997227D01*
X300656Y20002778D01*
X306549Y20107714D01*
X317162Y20296704D01*
X318405Y20307730D01*
X325659Y20350423D01*
X367253Y20595229D01*
X369714Y20606015D01*
X450451Y20886258D01*
X454111Y20896717D01*
X565711Y21166142D01*
X570525Y21176137D01*
X598028Y21225900D01*
X711583Y21431363D01*
X717475Y21440742D01*
X886246Y21678601D01*
X893131Y21687235D01*
X1087476Y21904706D01*
X1095294Y21912524D01*
X1312765Y22106869D01*
X1321399Y22113754D01*
X1559258Y22282525D01*
X1568637Y22288417D01*
X1823869Y22429479D01*
X1833858Y22434289D01*
X2103283Y22545889D01*
X2113742Y22549549D01*
X2393985Y22630286D01*
X2404771Y22632747D01*
X2692277Y22681596D01*
X2703296Y22682838D01*
X2997222Y22699345D01*
X3002773Y22699500D01*
X3047595Y22699500D01*
X42952405Y22699500D01*
X42997227Y22699500D01*
X43002777Y22699345D01*
G37*
%TD.AperFunction*%
%TD*%
M02*
