%TF.GenerationSoftware,KiCad,Pcbnew,10.0.4*%
%TF.CreationDate,2026-07-22T04:32:01+01:00*%
%TF.ProjectId,countdown,636f756e-7464-46f7-976e-2e6b69636164,rev?*%
%TF.SameCoordinates,Original*%
%TF.FileFunction,Legend,Bot*%
%TF.FilePolarity,Positive*%
%FSLAX46Y46*%
G04 Gerber Fmt 4.6, Leading zero omitted, Abs format (unit mm)*
G04 Created by KiCad (PCBNEW 10.0.4) date 2026-07-22 04:32:01*
%MOMM*%
%LPD*%
G01*
G04 APERTURE LIST*
G04 Aperture macros list*
%AMRoundRect*
0 Rectangle with rounded corners*
0 $1 Rounding radius*
0 $2 $3 $4 $5 $6 $7 $8 $9 X,Y pos of 4 corners*
0 Add a 4 corners polygon primitive as box body*
4,1,4,$2,$3,$4,$5,$6,$7,$8,$9,$2,$3,0*
0 Add four circle primitives for the rounded corners*
1,1,$1+$1,$2,$3*
1,1,$1+$1,$4,$5*
1,1,$1+$1,$6,$7*
1,1,$1+$1,$8,$9*
0 Add four rect primitives between the rounded corners*
20,1,$1+$1,$2,$3,$4,$5,0*
20,1,$1+$1,$4,$5,$6,$7,0*
20,1,$1+$1,$6,$7,$8,$9,0*
20,1,$1+$1,$8,$9,$2,$3,0*%
%AMFreePoly0*
4,1,14,0.364320,0.111820,0.377500,0.080000,0.377500,0.053640,0.364320,0.021820,0.230680,-0.111820,0.198860,-0.125000,-0.332500,-0.125000,-0.364320,-0.111820,-0.377500,-0.080000,-0.377500,0.080000,-0.364320,0.111820,-0.332500,0.125000,0.332500,0.125000,0.364320,0.111820,0.364320,0.111820,$1*%
%AMFreePoly1*
4,1,14,0.230680,0.111820,0.364320,-0.021820,0.377500,-0.053640,0.377500,-0.080000,0.364320,-0.111820,0.332500,-0.125000,-0.332500,-0.125000,-0.364320,-0.111820,-0.377500,-0.080000,-0.377500,0.080000,-0.364320,0.111820,-0.332500,0.125000,0.198860,0.125000,0.230680,0.111820,0.230680,0.111820,$1*%
%AMFreePoly2*
4,1,14,0.111820,0.364320,0.125000,0.332500,0.125000,-0.332500,0.111820,-0.364320,0.080000,-0.377500,0.053640,-0.377500,0.021820,-0.364320,-0.111820,-0.230680,-0.125000,-0.198860,-0.125000,0.332500,-0.111820,0.364320,-0.080000,0.377500,0.080000,0.377500,0.111820,0.364320,0.111820,0.364320,$1*%
%AMFreePoly3*
4,1,14,0.111820,0.364320,0.125000,0.332500,0.125000,-0.198860,0.111820,-0.230680,-0.021820,-0.364320,-0.053640,-0.377500,-0.080000,-0.377500,-0.111820,-0.364320,-0.125000,-0.332500,-0.125000,0.332500,-0.111820,0.364320,-0.080000,0.377500,0.080000,0.377500,0.111820,0.364320,0.111820,0.364320,$1*%
%AMFreePoly4*
4,1,14,0.364320,0.111820,0.377500,0.080000,0.377500,-0.080000,0.364320,-0.111820,0.332500,-0.125000,-0.332500,-0.125000,-0.364320,-0.111820,-0.377500,-0.080000,-0.377500,-0.053640,-0.364320,-0.021820,-0.230680,0.111820,-0.198860,0.125000,0.332500,0.125000,0.364320,0.111820,0.364320,0.111820,$1*%
%AMFreePoly5*
4,1,14,0.364320,0.111820,0.377500,0.080000,0.377500,-0.080000,0.364320,-0.111820,0.332500,-0.125000,-0.198860,-0.125000,-0.230680,-0.111820,-0.364320,0.021820,-0.377500,0.053640,-0.377500,0.080000,-0.364320,0.111820,-0.332500,0.125000,0.332500,0.125000,0.364320,0.111820,0.364320,0.111820,$1*%
%AMFreePoly6*
4,1,14,-0.021820,0.364320,0.111820,0.230680,0.125000,0.198860,0.125000,-0.332500,0.111820,-0.364320,0.080000,-0.377500,-0.080000,-0.377500,-0.111820,-0.364320,-0.125000,-0.332500,-0.125000,0.332500,-0.111820,0.364320,-0.080000,0.377500,-0.053640,0.377500,-0.021820,0.364320,-0.021820,0.364320,$1*%
%AMFreePoly7*
4,1,14,0.111820,0.364320,0.125000,0.332500,0.125000,-0.332500,0.111820,-0.364320,0.080000,-0.377500,-0.080000,-0.377500,-0.111820,-0.364320,-0.125000,-0.332500,-0.125000,0.198860,-0.111820,0.230680,0.021820,0.364320,0.053640,0.377500,0.080000,0.377500,0.111820,0.364320,0.111820,0.364320,$1*%
G04 Aperture macros list end*
%ADD10C,0.150000*%
%ADD11C,0.200000*%
%ADD12C,0.120000*%
%ADD13C,6.600000*%
%ADD14C,0.990600*%
%ADD15C,0.787400*%
%ADD16FreePoly0,90.000000*%
%ADD17RoundRect,0.062500X0.062500X-0.375000X0.062500X0.375000X-0.062500X0.375000X-0.062500X-0.375000X0*%
%ADD18FreePoly1,90.000000*%
%ADD19FreePoly2,90.000000*%
%ADD20RoundRect,0.062500X0.375000X-0.062500X0.375000X0.062500X-0.375000X0.062500X-0.375000X-0.062500X0*%
%ADD21FreePoly3,90.000000*%
%ADD22FreePoly4,90.000000*%
%ADD23R,2.700000X2.700000*%
%ADD24FreePoly5,90.000000*%
%ADD25FreePoly6,90.000000*%
%ADD26FreePoly7,90.000000*%
%ADD27RoundRect,0.225000X-0.225000X-0.250000X0.225000X-0.250000X0.225000X0.250000X-0.225000X0.250000X0*%
%ADD28RoundRect,0.200000X0.275000X-0.200000X0.275000X0.200000X-0.275000X0.200000X-0.275000X-0.200000X0*%
%ADD29R,1.000000X1.800000*%
%ADD30RoundRect,0.225000X0.250000X-0.225000X0.250000X0.225000X-0.250000X0.225000X-0.250000X-0.225000X0*%
%ADD31RoundRect,0.875000X-0.875000X-1.025000X0.875000X-1.025000X0.875000X1.025000X-0.875000X1.025000X0*%
%ADD32RoundRect,0.700000X-1.450000X-0.700000X1.450000X-0.700000X1.450000X0.700000X-1.450000X0.700000X0*%
G04 APERTURE END LIST*
D10*
X27557141Y1377158D02*
X27599998Y1334300D01*
X27599998Y1334300D02*
X27728570Y1291443D01*
X27728570Y1291443D02*
X27814284Y1291443D01*
X27814284Y1291443D02*
X27942855Y1334300D01*
X27942855Y1334300D02*
X28028570Y1420015D01*
X28028570Y1420015D02*
X28071427Y1505729D01*
X28071427Y1505729D02*
X28114284Y1677158D01*
X28114284Y1677158D02*
X28114284Y1805729D01*
X28114284Y1805729D02*
X28071427Y1977158D01*
X28071427Y1977158D02*
X28028570Y2062872D01*
X28028570Y2062872D02*
X27942855Y2148586D01*
X27942855Y2148586D02*
X27814284Y2191443D01*
X27814284Y2191443D02*
X27728570Y2191443D01*
X27728570Y2191443D02*
X27599998Y2148586D01*
X27599998Y2148586D02*
X27557141Y2105729D01*
X26999998Y2191443D02*
X26828570Y2191443D01*
X26828570Y2191443D02*
X26742855Y2148586D01*
X26742855Y2148586D02*
X26657141Y2062872D01*
X26657141Y2062872D02*
X26614284Y1891443D01*
X26614284Y1891443D02*
X26614284Y1591443D01*
X26614284Y1591443D02*
X26657141Y1420015D01*
X26657141Y1420015D02*
X26742855Y1334300D01*
X26742855Y1334300D02*
X26828570Y1291443D01*
X26828570Y1291443D02*
X26999998Y1291443D01*
X26999998Y1291443D02*
X27085713Y1334300D01*
X27085713Y1334300D02*
X27171427Y1420015D01*
X27171427Y1420015D02*
X27214284Y1591443D01*
X27214284Y1591443D02*
X27214284Y1891443D01*
X27214284Y1891443D02*
X27171427Y2062872D01*
X27171427Y2062872D02*
X27085713Y2148586D01*
X27085713Y2148586D02*
X26999998Y2191443D01*
X26228570Y2191443D02*
X26228570Y1462872D01*
X26228570Y1462872D02*
X26185713Y1377158D01*
X26185713Y1377158D02*
X26142856Y1334300D01*
X26142856Y1334300D02*
X26057141Y1291443D01*
X26057141Y1291443D02*
X25885713Y1291443D01*
X25885713Y1291443D02*
X25799998Y1334300D01*
X25799998Y1334300D02*
X25757141Y1377158D01*
X25757141Y1377158D02*
X25714284Y1462872D01*
X25714284Y1462872D02*
X25714284Y2191443D01*
X25285713Y1291443D02*
X25285713Y2191443D01*
X25285713Y2191443D02*
X24771427Y1291443D01*
X24771427Y1291443D02*
X24771427Y2191443D01*
X24471427Y2191443D02*
X23957142Y2191443D01*
X24214284Y1291443D02*
X24214284Y2191443D01*
X23657142Y1291443D02*
X23657142Y2191443D01*
X23657142Y2191443D02*
X23442856Y2191443D01*
X23442856Y2191443D02*
X23314285Y2148586D01*
X23314285Y2148586D02*
X23228570Y2062872D01*
X23228570Y2062872D02*
X23185713Y1977158D01*
X23185713Y1977158D02*
X23142856Y1805729D01*
X23142856Y1805729D02*
X23142856Y1677158D01*
X23142856Y1677158D02*
X23185713Y1505729D01*
X23185713Y1505729D02*
X23228570Y1420015D01*
X23228570Y1420015D02*
X23314285Y1334300D01*
X23314285Y1334300D02*
X23442856Y1291443D01*
X23442856Y1291443D02*
X23657142Y1291443D01*
X22585713Y2191443D02*
X22414285Y2191443D01*
X22414285Y2191443D02*
X22328570Y2148586D01*
X22328570Y2148586D02*
X22242856Y2062872D01*
X22242856Y2062872D02*
X22199999Y1891443D01*
X22199999Y1891443D02*
X22199999Y1591443D01*
X22199999Y1591443D02*
X22242856Y1420015D01*
X22242856Y1420015D02*
X22328570Y1334300D01*
X22328570Y1334300D02*
X22414285Y1291443D01*
X22414285Y1291443D02*
X22585713Y1291443D01*
X22585713Y1291443D02*
X22671428Y1334300D01*
X22671428Y1334300D02*
X22757142Y1420015D01*
X22757142Y1420015D02*
X22799999Y1591443D01*
X22799999Y1591443D02*
X22799999Y1891443D01*
X22799999Y1891443D02*
X22757142Y2062872D01*
X22757142Y2062872D02*
X22671428Y2148586D01*
X22671428Y2148586D02*
X22585713Y2191443D01*
X21899999Y2191443D02*
X21685713Y1291443D01*
X21685713Y1291443D02*
X21514285Y1934300D01*
X21514285Y1934300D02*
X21342856Y1291443D01*
X21342856Y1291443D02*
X21128571Y2191443D01*
X20785714Y1291443D02*
X20785714Y2191443D01*
X20785714Y2191443D02*
X20271428Y1291443D01*
X20271428Y1291443D02*
X20271428Y2191443D01*
X19242857Y1891443D02*
X19028571Y1291443D01*
X19028571Y1291443D02*
X18814286Y1891443D01*
X18000000Y1291443D02*
X18514286Y1291443D01*
X18257143Y1291443D02*
X18257143Y2191443D01*
X18257143Y2191443D02*
X18342857Y2062872D01*
X18342857Y2062872D02*
X18428572Y1977158D01*
X18428572Y1977158D02*
X18514286Y1934300D01*
X16971429Y2105729D02*
X16928572Y2148586D01*
X16928572Y2148586D02*
X16842858Y2191443D01*
X16842858Y2191443D02*
X16628572Y2191443D01*
X16628572Y2191443D02*
X16542858Y2148586D01*
X16542858Y2148586D02*
X16500000Y2105729D01*
X16500000Y2105729D02*
X16457143Y2020015D01*
X16457143Y2020015D02*
X16457143Y1934300D01*
X16457143Y1934300D02*
X16500000Y1805729D01*
X16500000Y1805729D02*
X17014286Y1291443D01*
X17014286Y1291443D02*
X16457143Y1291443D01*
X15900000Y2191443D02*
X15814286Y2191443D01*
X15814286Y2191443D02*
X15728572Y2148586D01*
X15728572Y2148586D02*
X15685715Y2105729D01*
X15685715Y2105729D02*
X15642857Y2020015D01*
X15642857Y2020015D02*
X15600000Y1848586D01*
X15600000Y1848586D02*
X15600000Y1634300D01*
X15600000Y1634300D02*
X15642857Y1462872D01*
X15642857Y1462872D02*
X15685715Y1377158D01*
X15685715Y1377158D02*
X15728572Y1334300D01*
X15728572Y1334300D02*
X15814286Y1291443D01*
X15814286Y1291443D02*
X15900000Y1291443D01*
X15900000Y1291443D02*
X15985715Y1334300D01*
X15985715Y1334300D02*
X16028572Y1377158D01*
X16028572Y1377158D02*
X16071429Y1462872D01*
X16071429Y1462872D02*
X16114286Y1634300D01*
X16114286Y1634300D02*
X16114286Y1848586D01*
X16114286Y1848586D02*
X16071429Y2020015D01*
X16071429Y2020015D02*
X16028572Y2105729D01*
X16028572Y2105729D02*
X15985715Y2148586D01*
X15985715Y2148586D02*
X15900000Y2191443D01*
X15257143Y2105729D02*
X15214286Y2148586D01*
X15214286Y2148586D02*
X15128572Y2191443D01*
X15128572Y2191443D02*
X14914286Y2191443D01*
X14914286Y2191443D02*
X14828572Y2148586D01*
X14828572Y2148586D02*
X14785714Y2105729D01*
X14785714Y2105729D02*
X14742857Y2020015D01*
X14742857Y2020015D02*
X14742857Y1934300D01*
X14742857Y1934300D02*
X14785714Y1805729D01*
X14785714Y1805729D02*
X15300000Y1291443D01*
X15300000Y1291443D02*
X14742857Y1291443D01*
X13971429Y2191443D02*
X14142857Y2191443D01*
X14142857Y2191443D02*
X14228571Y2148586D01*
X14228571Y2148586D02*
X14271429Y2105729D01*
X14271429Y2105729D02*
X14357143Y1977158D01*
X14357143Y1977158D02*
X14400000Y1805729D01*
X14400000Y1805729D02*
X14400000Y1462872D01*
X14400000Y1462872D02*
X14357143Y1377158D01*
X14357143Y1377158D02*
X14314286Y1334300D01*
X14314286Y1334300D02*
X14228571Y1291443D01*
X14228571Y1291443D02*
X14057143Y1291443D01*
X14057143Y1291443D02*
X13971429Y1334300D01*
X13971429Y1334300D02*
X13928571Y1377158D01*
X13928571Y1377158D02*
X13885714Y1462872D01*
X13885714Y1462872D02*
X13885714Y1677158D01*
X13885714Y1677158D02*
X13928571Y1762872D01*
X13928571Y1762872D02*
X13971429Y1805729D01*
X13971429Y1805729D02*
X14057143Y1848586D01*
X14057143Y1848586D02*
X14228571Y1848586D01*
X14228571Y1848586D02*
X14314286Y1805729D01*
X14314286Y1805729D02*
X14357143Y1762872D01*
X14357143Y1762872D02*
X14400000Y1677158D01*
D11*
X32857142Y7812400D02*
X31942857Y7812400D01*
X32399999Y7355258D02*
X32399999Y8269543D01*
%TO.C,J1*%
D12*
X38730000Y3230000D02*
X38730000Y2595000D01*
X38730000Y2595000D02*
X39365000Y2595000D01*
%TO.C,U1*%
X37490000Y19510000D02*
X37490000Y19285000D01*
X37490000Y15515000D02*
X37490000Y15290000D01*
X37490000Y15290000D02*
X37715000Y15290000D01*
X37715000Y19510000D02*
X37490000Y19510000D01*
X41485000Y15290000D02*
X41710000Y15290000D01*
X41710000Y19510000D02*
X41485000Y19510000D01*
X41710000Y19285000D02*
X41710000Y19510000D01*
X41710000Y15290000D02*
X41710000Y15515000D01*
X41100000Y14760000D02*
X40860000Y14430000D01*
X41340000Y14430000D01*
X41100000Y14760000D01*
G36*
X41340000Y14430000D02*
G01*
X40860000Y14430000D01*
X41100000Y14760000D01*
X41340000Y14430000D01*
G37*
%TO.C,C2*%
X35259420Y13410000D02*
X35540580Y13410000D01*
X35259420Y12390000D02*
X35540580Y12390000D01*
%TO.C,C4*%
X8159420Y21710000D02*
X8440580Y21710000D01*
X8159420Y20690000D02*
X8440580Y20690000D01*
%TO.C,C5*%
X4459420Y21210000D02*
X4740580Y21210000D01*
X4459420Y20190000D02*
X4740580Y20190000D01*
%TO.C,C3*%
X34759420Y5210000D02*
X35040580Y5210000D01*
X34759420Y4190000D02*
X35040580Y4190000D01*
%TO.C,C6*%
X4259420Y2610000D02*
X4540580Y2610000D01*
X4259420Y1590000D02*
X4540580Y1590000D01*
%TO.C,R9*%
X1977500Y15762742D02*
X1977500Y16237258D01*
X3022500Y15762742D02*
X3022500Y16237258D01*
%TO.C,Y1*%
X38925000Y14475000D02*
X40275000Y14475000D01*
X38925000Y12725000D02*
X40275000Y12725000D01*
%TO.C,C1*%
X39159420Y22010000D02*
X39440580Y22010000D01*
X39159420Y20990000D02*
X39440580Y20990000D01*
%TO.C,C7*%
X32490000Y20959420D02*
X32490000Y21240580D01*
X33510000Y20959420D02*
X33510000Y21240580D01*
%TO.C,BT1*%
D10*
X7350000Y19350000D02*
X31450000Y19350000D01*
X7350000Y3650000D02*
X31450000Y3650000D01*
X31450000Y14100000D02*
X31450000Y19350000D01*
X31450000Y3650000D02*
X31450000Y8900000D01*
%TO.C,C8*%
D12*
X43159420Y14010000D02*
X43440580Y14010000D01*
X43159420Y12990000D02*
X43440580Y12990000D01*
%TD*%
%LPC*%
D13*
%TO.C,H1*%
X4000000Y11500000D03*
%TD*%
D14*
%TO.C,J1*%
X40000000Y1960000D03*
X38984000Y7040000D03*
X41016000Y7040000D03*
D15*
X39365000Y3230000D03*
X40635000Y3230000D03*
X39365000Y4500000D03*
X40635000Y4500000D03*
X39365000Y5770000D03*
X40635000Y5770000D03*
%TD*%
D16*
%TO.C,U1*%
X41100000Y15402500D03*
D17*
X40600000Y15462500D03*
X40100000Y15462500D03*
X39600000Y15462500D03*
X39100000Y15462500D03*
X38600000Y15462500D03*
D18*
X38100000Y15402500D03*
D19*
X37602500Y15900000D03*
D20*
X37662500Y16400000D03*
X37662500Y16900000D03*
X37662500Y17400000D03*
X37662500Y17900000D03*
X37662500Y18400000D03*
D21*
X37602500Y18900000D03*
D22*
X38100000Y19397500D03*
D23*
X39600000Y17400000D03*
D17*
X38600000Y19337500D03*
X39100000Y19337500D03*
X39600000Y19337500D03*
X40100000Y19337500D03*
X40600000Y19337500D03*
D24*
X41100000Y19397500D03*
D25*
X41597500Y18900000D03*
D20*
X41537500Y18400000D03*
X41537500Y17900000D03*
X41537500Y17400000D03*
X41537500Y16900000D03*
X41537500Y16400000D03*
D26*
X41597500Y15900000D03*
%TD*%
D27*
%TO.C,C2*%
X34625000Y12900000D03*
X36175000Y12900000D03*
%TD*%
%TO.C,C4*%
X7525000Y21200000D03*
X9075000Y21200000D03*
%TD*%
%TO.C,C5*%
X3825000Y20700000D03*
X5375000Y20700000D03*
%TD*%
%TO.C,C3*%
X34125000Y4700000D03*
X35675000Y4700000D03*
%TD*%
%TO.C,C6*%
X3625000Y2100000D03*
X5175000Y2100000D03*
%TD*%
D28*
%TO.C,R9*%
X2500000Y15175000D03*
X2500000Y16825000D03*
%TD*%
D29*
%TO.C,Y1*%
X40850000Y13600000D03*
X38350000Y13600000D03*
%TD*%
D27*
%TO.C,C1*%
X38525000Y21500000D03*
X40075000Y21500000D03*
%TD*%
D30*
%TO.C,C7*%
X33000000Y20325000D03*
X33000000Y21875000D03*
%TD*%
D31*
%TO.C,BT1*%
X32400000Y11500000D03*
D32*
X10600000Y11500000D03*
%TD*%
D27*
%TO.C,C8*%
X42525000Y13500000D03*
X44075000Y13500000D03*
%TD*%
%LPD*%
M02*
