%TF.GenerationSoftware,KiCad,Pcbnew,10.0.4*%
%TF.CreationDate,2026-07-22T04:32:01+01:00*%
%TF.ProjectId,countdown,636f756e-7464-46f7-976e-2e6b69636164,rev?*%
%TF.SameCoordinates,Original*%
%TF.FileFunction,Copper,L1,Top*%
%TF.FilePolarity,Positive*%
%FSLAX46Y46*%
G04 Gerber Fmt 4.6, Leading zero omitted, Abs format (unit mm)*
G04 Created by KiCad (PCBNEW 10.0.4) date 2026-07-22 04:32:01*
%MOMM*%
%LPD*%
G01*
G04 APERTURE LIST*
G04 Aperture macros list*
%AMRoundRect*
0 Rectangle with rounded corners*
0 $1 Rounding radius*
0 $2 $3 $4 $5 $6 $7 $8 $9 X,Y pos of 4 corners*
0 Add a 4 corners polygon primitive as box body*
4,1,4,$2,$3,$4,$5,$6,$7,$8,$9,$2,$3,0*
0 Add four circle primitives for the rounded corners*
1,1,$1+$1,$2,$3*
1,1,$1+$1,$4,$5*
1,1,$1+$1,$6,$7*
1,1,$1+$1,$8,$9*
0 Add four rect primitives between the rounded corners*
20,1,$1+$1,$2,$3,$4,$5,0*
20,1,$1+$1,$4,$5,$6,$7,0*
20,1,$1+$1,$6,$7,$8,$9,0*
20,1,$1+$1,$8,$9,$2,$3,0*%
G04 Aperture macros list end*
%TA.AperFunction,SMDPad,CuDef*%
%ADD10RoundRect,0.200000X-0.200000X-0.275000X0.200000X-0.275000X0.200000X0.275000X-0.200000X0.275000X0*%
%TD*%
%TA.AperFunction,ComponentPad*%
%ADD11C,6.600000*%
%TD*%
%TA.AperFunction,SMDPad,CuDef*%
%ADD12RoundRect,0.225000X0.225000X-0.375000X0.225000X0.375000X-0.225000X0.375000X-0.225000X-0.375000X0*%
%TD*%
%TA.AperFunction,SMDPad,CuDef*%
%ADD13RoundRect,0.500000X-0.500000X-0.500000X0.500000X-0.500000X0.500000X0.500000X-0.500000X0.500000X0*%
%TD*%
%TA.AperFunction,SMDPad,CuDef*%
%ADD14RoundRect,0.500000X-0.500000X-0.600000X0.500000X-0.600000X0.500000X0.600000X-0.500000X0.600000X0*%
%TD*%
%TA.AperFunction,ViaPad*%
%ADD15C,0.600000*%
%TD*%
%TA.AperFunction,Conductor*%
%ADD16C,0.200000*%
%TD*%
%TA.AperFunction,Conductor*%
%ADD17C,0.300000*%
%TD*%
G04 APERTURE END LIST*
D10*
%TO.P,R1,1*%
%TO.N,SEG_A*%
X13675000Y21000000D03*
%TO.P,R1,2*%
%TO.N,LED_A*%
X15325000Y21000000D03*
%TD*%
%TO.P,R5,1*%
%TO.N,SEG_E*%
X13175000Y3000000D03*
%TO.P,R5,2*%
%TO.N,LED_E*%
X14825000Y3000000D03*
%TD*%
D11*
%TO.P,H1,1*%
%TO.N,GND*%
X4000000Y11500000D03*
%TD*%
D10*
%TO.P,R4,1*%
%TO.N,SEG_D*%
X16675000Y3000000D03*
%TO.P,R4,2*%
%TO.N,LED_D*%
X18325000Y3000000D03*
%TD*%
D12*
%TO.P,SW1,1*%
%TO.N,BTN*%
X39125000Y8400000D03*
%TO.P,SW1,2*%
%TO.N,unconnected-(SW1-B-Pad2)*%
X39125000Y14600000D03*
%TO.P,SW1,3*%
%TO.N,unconnected-(SW1-C-Pad3)*%
X42875000Y8400000D03*
%TO.P,SW1,4*%
%TO.N,GND*%
X42875000Y14600000D03*
%TD*%
D10*
%TO.P,R8,1*%
%TO.N,SEG_DP*%
X20175000Y3000000D03*
%TO.P,R8,2*%
%TO.N,LED_DP*%
X21825000Y3000000D03*
%TD*%
%TO.P,R2,1*%
%TO.N,SEG_B*%
X25675000Y21000000D03*
%TO.P,R2,2*%
%TO.N,LED_B*%
X27325000Y21000000D03*
%TD*%
D13*
%TO.P,DS1,*%
%TO.N,*%
X9920000Y15300000D03*
X9920000Y6700000D03*
X32780000Y15300000D03*
X32780000Y6700000D03*
D14*
%TO.P,DS1,1*%
%TO.N,LED_E*%
X15000000Y6700000D03*
%TO.P,DS1,2*%
%TO.N,LED_D*%
X17540000Y6700000D03*
%TO.P,DS1,3*%
%TO.N,LED_DP*%
X20080000Y6700000D03*
%TO.P,DS1,4*%
%TO.N,LED_C*%
X22620000Y6700000D03*
%TO.P,DS1,5*%
%TO.N,LED_G*%
X25160000Y6700000D03*
%TO.P,DS1,6*%
%TO.N,DIG_4*%
X27700000Y6700000D03*
%TO.P,DS1,7*%
%TO.N,LED_B*%
X27700000Y15300000D03*
%TO.P,DS1,8*%
%TO.N,DIG_3*%
X25160000Y15300000D03*
%TO.P,DS1,9*%
%TO.N,DIG_2*%
X22620000Y15300000D03*
%TO.P,DS1,10*%
%TO.N,LED_F*%
X20080000Y15300000D03*
%TO.P,DS1,11*%
%TO.N,LED_A*%
X17540000Y15300000D03*
%TO.P,DS1,12*%
%TO.N,DIG_1*%
X15000000Y15300000D03*
%TD*%
D10*
%TO.P,R3,1*%
%TO.N,SEG_C*%
X23675000Y3000000D03*
%TO.P,R3,2*%
%TO.N,LED_C*%
X25325000Y3000000D03*
%TD*%
%TO.P,R6,1*%
%TO.N,SEG_F*%
X17675000Y21000000D03*
%TO.P,R6,2*%
%TO.N,LED_F*%
X19325000Y21000000D03*
%TD*%
%TO.P,R7,1*%
%TO.N,SEG_G*%
X27175000Y3000000D03*
%TO.P,R7,2*%
%TO.N,LED_G*%
X28825000Y3000000D03*
%TD*%
D15*
%TO.N,SEG_A*%
X35083300Y13827700D03*
%TO.N,SEG_E*%
X34740900Y15356500D03*
X13879000Y2296000D03*
%TO.N,GND*%
X42630300Y15749900D03*
X35657000Y11471200D03*
X5248300Y3029200D03*
X41071500Y21618500D03*
X37856200Y20639900D03*
X41036000Y11057800D03*
%TO.N,SEG_D*%
X16675000Y3928900D03*
X36283800Y16451600D03*
%TO.N,BTN*%
X42444000Y16853400D03*
%TO.N,SEG_DP*%
X36750000Y18400200D03*
X25986200Y3748200D03*
%TO.N,SEG_B*%
X35410700Y16559400D03*
%TO.N,DIG_4*%
X40497700Y20232000D03*
X29463200Y6391400D03*
%TO.N,DIG_3*%
X39600000Y20229900D03*
X26292700Y16646600D03*
%TO.N,DIG_2*%
X33069000Y16892700D03*
%TO.N,DIG_1*%
X35771800Y18635500D03*
X15024700Y16860200D03*
%TO.N,SEG_C*%
X23691400Y3933700D03*
X36770700Y15872400D03*
%TO.N,SEG_F*%
X21590000Y21776400D03*
X32062300Y20332800D03*
%TO.N,SEG_G*%
X26236900Y4811500D03*
X35293300Y18021500D03*
%TO.N,VDD*%
X36006900Y21500000D03*
X38187200Y10500200D03*
X44089100Y16198200D03*
%TO.N,LSE_IN*%
X40758700Y12240100D03*
X34756800Y20575000D03*
%TO.N,LSE_OUT*%
X38270200Y12234700D03*
X40012500Y10828000D03*
%TO.N,BOOT0*%
X1827500Y15908500D03*
X43487300Y15723900D03*
%TD*%
%TO.N,SEG_A*%
D16*
X16270000Y18405000D02*
X16270000Y14379200D01*
X17133100Y13516100D02*
X34771700Y13516100D01*
X16270000Y14379200D02*
X17133100Y13516100D01*
X34771700Y13516100D02*
X35083300Y13827700D01*
X13675000Y21000000D02*
X16270000Y18405000D01*
%TO.N,LED_A*%
X17540000Y15300000D02*
X17540000Y18785000D01*
X17540000Y18785000D02*
X15325000Y21000000D01*
%TO.N,SEG_E*%
X13175000Y3000000D02*
X13879000Y2296000D01*
%TO.N,LED_E*%
X14825000Y6525000D02*
X15000000Y6700000D01*
X14825000Y3000000D02*
X14825000Y6525000D01*
%TO.N,GND*%
D17*
X42875000Y14600000D02*
X42630300Y14844700D01*
X42630300Y14844700D02*
X42630300Y15749900D01*
%TO.N,SEG_D*%
D16*
X16675000Y3000000D02*
X16675000Y3928900D01*
%TO.N,LED_D*%
X17540000Y6700000D02*
X18325000Y5915000D01*
X18325000Y5915000D02*
X18325000Y3000000D01*
%TO.N,BTN*%
X39232700Y8400000D02*
X41879600Y11046900D01*
X41879600Y11046900D02*
X41879600Y16289000D01*
X41879600Y16289000D02*
X42444000Y16853400D01*
X39125000Y8400000D02*
X39232700Y8400000D01*
%TO.N,SEG_DP*%
X20951900Y2223100D02*
X25664800Y2223100D01*
X20175000Y3000000D02*
X20951900Y2223100D01*
X25986200Y2544500D02*
X25986200Y3748200D01*
X25664800Y2223100D02*
X25986200Y2544500D01*
%TO.N,LED_DP*%
X20080000Y4745000D02*
X21825000Y3000000D01*
X20080000Y6700000D02*
X20080000Y4745000D01*
%TO.N,SEG_B*%
X29886400Y21728600D02*
X35055600Y16559400D01*
X26403600Y21728600D02*
X29886400Y21728600D01*
X35055600Y16559400D02*
X35410700Y16559400D01*
X25675000Y21000000D02*
X26403600Y21728600D01*
%TO.N,LED_B*%
X27700000Y20625000D02*
X27325000Y21000000D01*
X27700000Y15300000D02*
X27700000Y20625000D01*
%TO.N,LED_C*%
X25325000Y3000000D02*
X25325000Y3995000D01*
X25325000Y3995000D02*
X22620000Y6700000D01*
%TO.N,LED_G*%
X28825000Y3000000D02*
X28825000Y3035000D01*
X28825000Y3035000D02*
X25160000Y6700000D01*
%TO.N,DIG_4*%
X27700000Y6700000D02*
X29154600Y6700000D01*
X29154600Y6700000D02*
X29463200Y6391400D01*
%TO.N,DIG_3*%
X25160000Y15513900D02*
X25160000Y15300000D01*
X26292700Y16646600D02*
X25160000Y15513900D01*
%TO.N,DIG_2*%
X32306900Y16892700D02*
X29337600Y13923400D01*
X29337600Y13923400D02*
X23996600Y13923400D01*
X23996600Y13923400D02*
X22620000Y15300000D01*
X33069000Y16892700D02*
X32306900Y16892700D01*
%TO.N,LED_F*%
X20080000Y15300000D02*
X20080000Y20245000D01*
X20080000Y20245000D02*
X19325000Y21000000D01*
%TO.N,DIG_1*%
X15000000Y15300000D02*
X15024700Y15324700D01*
X15024700Y15324700D02*
X15024700Y16860200D01*
%TO.N,SEG_C*%
X23675000Y3917300D02*
X23691400Y3933700D01*
X23675000Y3000000D02*
X23675000Y3917300D01*
%TO.N,SEG_F*%
X18451400Y21776400D02*
X21590000Y21776400D01*
X17675000Y21000000D02*
X18451400Y21776400D01*
%TO.N,SEG_G*%
X27175000Y3873400D02*
X26236900Y4811500D01*
X27175000Y3000000D02*
X27175000Y3873400D01*
%TD*%
M02*
